<svg width="1940" height="2364" viewBox="0 0 1940 2364" fill="none" xmlns="http://www.w3.org/2000/svg">
<g id="Latin-America">
<g id="Stage3">
<g id="LA08">
<path id="LA08_2" fill-rule="evenodd" clip-rule="evenodd" d="M1068.13 2192.93C1063.82 2193.29 1060.01 2193.85 1057.47 2194.82C1049.63 2199.56 1049.07 2195.94 1047.96 2188.82C1047.52 2186.02 1047.01 2182.68 1045.93 2179.1C1045.07 2176.22 1043.97 2172.58 1043.56 2167.07C1043.25 2162.82 1042.64 2162.2 1042.05 2161.59H1042.05C1041.33 2160.85 1040.63 2160.13 1040.47 2153.04C1040.65 2152.92 1041.85 2152.18 1043.24 2151.33L1043.26 2151.32C1045.34 2150.03 1047.84 2148.49 1047.97 2148.38C1053.75 2143.38 1060.06 2136.08 1062.37 2128.36C1064.87 2120.02 1067.59 2116.07 1069.39 2113.46C1072.48 2108.97 1072.86 2108.42 1064.76 2096.33C1065.81 2094.13 1066.54 2092.08 1067.21 2090.19C1069.22 2084.51 1070.71 2080.3 1078.93 2078.1C1078.93 2073.34 1078.44 2070.91 1078.12 2069.31C1077.6 2066.72 1077.52 2066.29 1080.62 2061.63C1085.48 2054.33 1085.05 2050.39 1084.44 2044.81C1083.95 2040.34 1083.34 2034.82 1085.24 2025.68C1086.39 2020.18 1087.67 2019.28 1089.03 2018.34C1090.34 2017.43 1091.71 2016.46 1093.1 2011.26C1091.69 2005.98 1089.87 2004.57 1088.04 2003.16C1086.22 2001.75 1084.39 2000.34 1082.98 1995.06C1091.44 1995.06 1091.51 1995.01 1094.75 1992.68C1095.4 1992.22 1096.17 1991.66 1097.15 1991C1095.25 1982.83 1093.44 1982.32 1089.32 1981.16L1089.32 1981.16C1087.64 1980.68 1085.59 1980.1 1082.98 1978.85C1082.98 1975.38 1083.05 1971.79 1083.11 1968.2C1083.2 1962.83 1083.29 1957.44 1083.18 1952.32C1083 1943.91 1080.61 1941.57 1078.32 1939.33C1075.48 1936.55 1072.82 1933.94 1074.76 1920.06C1074.87 1919.32 1074.95 1918.68 1075.03 1918.13C1075.41 1915.32 1075.5 1914.71 1075.85 1914.43C1075.94 1914.36 1076.06 1914.3 1076.21 1914.24C1076.68 1914.04 1077.47 1913.7 1078.96 1911.99C1080.26 1910.49 1081.09 1910.17 1081.64 1909.96C1082.6 1909.6 1082.7 1909.56 1082.99 1904.08C1083.31 1898.01 1082.27 1893.67 1081.23 1889.3L1081.23 1889.3C1079.53 1882.21 1077.81 1875.05 1081.9 1860.29C1083.69 1853.79 1084.62 1848.3 1085.37 1843.84L1085.37 1843.84L1085.37 1843.84C1086.25 1838.65 1086.89 1834.86 1088.4 1832.49C1089.18 1831.28 1089.83 1830.29 1090.38 1829.45C1091.78 1827.35 1092.51 1826.25 1092.88 1825.04C1093.29 1823.69 1093.25 1822.21 1093.18 1819.09C1093.15 1817.49 1093.1 1815.45 1093.1 1812.77C1107 1805.41 1105.96 1802.27 1102.12 1790.74C1101.43 1788.68 1100.66 1786.36 1099.87 1783.71C1099.46 1782.35 1099.08 1781.08 1098.72 1779.91C1096.14 1771.36 1094.97 1767.48 1096.4 1765.73C1097.58 1764.28 1100.54 1764.28 1105.95 1764.28C1108.51 1764.28 1111.62 1764.28 1115.34 1764.13C1120.01 1763.94 1127.09 1763.17 1135.2 1762.29L1135.2 1762.29C1157.32 1759.89 1187.06 1756.67 1196.25 1762.05L1283.3 1810.83C1311.41 1827.01 1308.23 1830.91 1302.6 1837.8C1300.36 1840.55 1297.73 1843.76 1296.54 1848.42C1295.51 1852.42 1297.15 1856.3 1298.68 1859.92C1301.52 1866.63 1303.98 1872.44 1288.34 1876.47C1274.31 1880.09 1263.42 1875.56 1253.99 1871.63C1247.03 1868.74 1240.86 1866.17 1234.8 1867.45C1234.8 1878.52 1234.95 1879.18 1236.89 1887.63L1236.94 1887.82C1238.56 1894.85 1238.39 1895.14 1237.42 1896.79C1236.79 1897.86 1235.83 1899.5 1234.8 1903.91C1236.4 1904.98 1237.91 1905.85 1239.3 1906.66C1244.97 1909.93 1248.75 1912.12 1248.97 1922.14C1247.53 1922.48 1246.54 1922.75 1245.68 1922.99L1245.68 1922.99C1243.8 1923.52 1242.61 1923.85 1238.85 1924.17C1240.94 1933.15 1242.77 1935.46 1253.02 1936.32C1250.36 1939.95 1247.13 1941.63 1243.94 1943.29C1239.64 1945.53 1235.43 1947.73 1232.84 1954.61C1230.89 1959.78 1230.92 1964.85 1230.94 1969.75C1230.96 1975.45 1230.98 1980.94 1227.92 1986.14C1218.73 2001.78 1218.05 2001.79 1214.54 2001.87C1211.85 2001.93 1207.49 2002.03 1196.35 2009.24C1191.5 2012.39 1191.11 2012.96 1187.85 2017.76C1187.7 2017.99 1187.53 2018.23 1187.36 2018.48C1174.85 2036.94 1170.41 2049.05 1191.85 2064.37C1195.35 2066.87 1200.63 2068.05 1205.82 2069.21C1216.23 2071.54 1226.31 2073.8 1221.18 2086.49C1219.11 2091.62 1218.42 2091.82 1217.33 2092.12C1216.4 2092.38 1215.18 2092.72 1212.53 2096.33C1213.65 2096.63 1214.51 2096.81 1215.18 2096.96C1216.32 2097.21 1216.9 2097.34 1217.25 2097.69C1217.6 2098.04 1217.72 2098.61 1217.98 2099.76C1218.12 2100.43 1218.31 2101.28 1218.61 2102.4C1213.37 2108.43 1206.98 2113.59 1200.58 2118.75L1200.58 2118.75C1193.43 2124.51 1186.26 2130.29 1180.64 2137.33C1176.15 2142.95 1175.91 2148.06 1175.62 2153.89C1175.43 2157.79 1175.23 2162 1173.74 2166.91C1169.88 2179.61 1159.05 2177.18 1155.86 2165.19H1151.81C1150.9 2167.7 1150 2168.44 1149.1 2169.19C1147.99 2170.12 1146.88 2171.05 1145.74 2175.32C1148.98 2175.05 1150.64 2174.65 1151.64 2174.42C1152.28 2174.26 1152.66 2174.17 1153.02 2174.22C1153.52 2174.28 1154 2174.62 1155.15 2175.44C1155.8 2175.91 1156.67 2176.53 1157.88 2177.34C1155.93 2180.01 1153.83 2181.49 1151.77 2182.95C1148.92 2184.96 1146.16 2186.91 1144 2191.81L1135.61 2209.75C1143.62 2211.89 1145.05 2219.75 1145.74 2227.98C1141.97 2228.29 1140.78 2228.63 1138.89 2229.16C1138.04 2229.4 1137.05 2229.67 1135.61 2230.01C1139.1 2234.78 1140.62 2234.43 1142.03 2234.1C1143.73 2233.71 1145.26 2233.36 1149.91 2242.03C1150.82 2243.74 1151.74 2245.26 1152.63 2246.72C1154.8 2250.29 1156.75 2253.52 1157.88 2258.36C1146.62 2252.96 1123.42 2242.02 1110.7 2245.11L1110.7 2245.11C1109.55 2245.39 1108.36 2245.68 1107.05 2245.83C1101.3 2246.51 1095.37 2246.4 1089.49 2246.29C1087.31 2246.25 1085.14 2246.21 1082.98 2246.21C1079.7 2241.31 1078.41 2239.39 1074.33 2234.61C1065.82 2224.68 1067.8 2219.82 1070.02 2214.38C1072.05 2209.38 1073.6 2203.28 1068.13 2192.93ZM1256.94 1924.42C1256.61 1924.24 1255.65 1925.23 1253.02 1924.17C1256.2 1919.42 1258.13 1918.69 1259.31 1918.24C1260.95 1917.62 1261.12 1917.55 1261.12 1907.96C1265.73 1909.19 1266.24 1909.72 1267.39 1910.89C1268.09 1911.6 1269.02 1912.55 1271.24 1914.04C1271.24 1915.51 1271.26 1916.88 1271.29 1918.15C1271.48 1928.28 1271.55 1931.94 1257.07 1932.27C1256.93 1926.03 1257.27 1924.6 1256.94 1924.42Z" fill="#DE7676"/>
<g id="Centre">
<circle id="Ellipse 95" cx="1177.34" cy="1964.18" r="31.7763" fill="white"/>
</g>
</g>
<g id="LA27">
<path id="LA27_2" fill-rule="evenodd" clip-rule="evenodd" d="M1192.29 1381.35C1192.29 1385.65 1187.49 1404.89 1181.26 1408.8C1174.52 1413.03 1157.88 1415.85 1157.88 1425.91C1157.88 1434.01 1162.06 1426.74 1160.7 1435.47C1159.14 1445.48 1156.06 1435.22 1157.49 1444.99C1157.72 1446.62 1160.64 1451.82 1161.12 1455.01C1164.24 1475.52 1153.06 1444.55 1161.93 1482.62C1153.49 1488.27 1146.87 1487.24 1145.74 1500.85C1155.62 1501.07 1161.25 1506.97 1168 1517.06C1191.73 1505.66 1193.63 1517.11 1217.09 1540.85C1232.87 1556.84 1230.71 1554.05 1259.09 1547.43C1271.6 1555.81 1267.04 1555.53 1303.63 1555.53C1306.41 1560.48 1305.65 1559.28 1305.65 1567.69C1329.78 1567.69 1317.47 1576.39 1311.75 1588.02C1307.04 1597.6 1309.08 1611.43 1311.12 1623C1315.27 1646.6 1313.61 1642.08 1297.72 1667.33C1287.74 1683.2 1302.65 1684.11 1317.25 1668.41C1326.01 1658.99 1323.69 1660.86 1340.07 1660.86C1342.27 1656.69 1342.87 1656.06 1344.11 1650.73C1359.69 1650.73 1373.13 1661.76 1386.62 1662.89C1388.2 1643.96 1396.75 1650.09 1396.75 1628.45C1396.75 1621.02 1394.96 1617.88 1395.23 1614.19C1396.04 1603.26 1398.54 1616.02 1400.29 1595.86L1400.94 1591.93C1406.48 1565.93 1402.67 1570.71 1428.67 1538.87C1441.9 1522.65 1461.13 1503.74 1479.32 1492.33C1491.23 1484.86 1508.03 1481.87 1491.88 1448.19C1469.73 1450.04 1486.37 1461.14 1476.39 1473.19C1473.31 1476.92 1469.01 1478.84 1464.72 1481.77C1446.67 1494.1 1471.08 1485.37 1444.05 1493.55L1441.09 1494.73C1435.97 1497.07 1442.39 1494.86 1437.4 1497.04L1404.49 1493.1C1388.11 1491.64 1380.88 1495.41 1389.94 1477.98C1400.52 1457.64 1387.23 1474.48 1408.89 1442.11C1398.24 1426.2 1399.95 1432.99 1375.88 1422.48C1361.77 1416.33 1358.14 1409.1 1341.85 1403.87C1298.84 1390.04 1307.44 1359.07 1277.31 1359.07C1253.96 1359.07 1264.23 1371.74 1251 1375.27C1246.83 1357.35 1231.9 1360.5 1222.92 1358.8C1214.85 1357.27 1218.93 1357.27 1212.53 1352.99C1207.28 1360.85 1205.41 1360.04 1198.25 1365.06C1186.19 1373.52 1192.29 1376.8 1192.29 1381.35V1381.35Z" fill="#A2A2A2"/>
<g id="Centre_2">
<circle id="Ellipse 95_2" cx="1307.14" cy="1484.51" r="31.7763" fill="white"/>
</g>
</g>
<g id="LA29">
<path id="LA29_2" fill-rule="evenodd" clip-rule="evenodd" d="M1123.47 1545.41C1123.47 1562.9 1126.57 1558.34 1127.52 1569.71C1114.62 1573.16 1118 1581.86 1113.59 1592.24C1110.41 1599.7 1107.11 1599.8 1111.54 1605.96L1113.34 1608.2C1118.58 1615.31 1116.47 1616.58 1121.54 1632.47C1125.51 1644.9 1121.44 1632.34 1121.44 1642.63C1121.44 1645.27 1137.42 1664.39 1122.37 1684.07C1108.05 1702.79 1113.35 1714.85 1113.35 1725.67C1113.35 1736.37 1095.13 1736.98 1095.13 1762.13C1126.87 1762.13 1151.61 1756.05 1190.27 1756.05C1195.82 1756.05 1275.37 1800.78 1291.53 1808.93C1305.74 1816.09 1293.73 1808.23 1309.07 1809.16C1315.69 1809.56 1322.12 1812.77 1331.97 1812.77C1357.03 1812.77 1398.78 1800.26 1408.81 1786.35C1423.11 1766.55 1441.09 1749.03 1426.93 1738.06C1420.46 1733.04 1414.96 1735.58 1414.96 1723.65C1414.96 1710.2 1426.93 1710.13 1406.06 1698.12C1391.82 1689.93 1388.65 1693.92 1388.65 1673.01C1381.26 1669.46 1356.97 1659.57 1348.16 1658.83C1344.31 1673.26 1338.28 1662.64 1326.61 1669.68C1310.84 1679.2 1324.43 1685.16 1295.53 1685.16C1272.92 1685.16 1304.22 1643.81 1304.47 1643.33C1307.85 1636.91 1306.54 1634.97 1304.52 1625.64C1296.15 1587 1306.97 1585.49 1309.7 1573.77C1304.76 1576.54 1305.95 1575.79 1297.55 1575.79C1297.55 1551.08 1288.09 1565.82 1267.63 1561.12C1249.36 1556.92 1279.1 1557.56 1238.85 1557.56L1236.58 1565.58C1224.92 1562.5 1195.39 1527.78 1186.22 1519.08C1176.35 1519.9 1174.11 1523.26 1165.98 1525.15L1148.24 1506.45C1142.01 1509.69 1143.25 1507.44 1138.48 1511.82L1132.2 1521.74C1130.18 1529.28 1133.05 1527.89 1129.48 1535.22C1126.81 1540.7 1123.47 1539.39 1123.47 1545.41V1545.41Z" fill="#A2A2A2"/>
<g id="Centre_3">
<circle id="Ellipse 95_3" cx="1240.67" cy="1705.22" r="31.7763" fill="white"/>
</g>
</g>
<g id="LA18">
<path id="LA18_2" fill-rule="evenodd" clip-rule="evenodd" d="M1507.77 1632.81C1493.04 1618.02 1499.84 1622.16 1489.49 1616.08L1468.48 1601.34C1449.67 1596.96 1468.05 1585.3 1443.71 1590.98C1440.26 1579.71 1447 1583.53 1426.78 1569.99C1423.02 1567.47 1418.73 1570.48 1408.01 1575.63C1408.18 1583.29 1409.69 1583.46 1408.01 1590.98L1403.58 1606.94C1398.92 1621.8 1406.41 1629.24 1400.79 1644.65C1391.67 1657.46 1391.5 1674.65 1404.83 1681.13C1412.16 1684.7 1418.57 1682.27 1427 1687.3C1435.2 1692.19 1433.25 1695.93 1448.13 1691.96C1463.22 1687.93 1455.71 1692.35 1469.76 1693.33C1479.57 1694.02 1484.73 1690.19 1490.77 1686.08C1508.57 1673.96 1502.01 1667.02 1502.01 1644.65C1506.1 1639.59 1510.18 1637.08 1507.77 1632.81Z" fill="#74BCFF"/>
<g id="Centre_4">
<circle id="Ellipse 95_4" cx="1446.78" cy="1647.78" r="31.7763" fill="white"/>
</g>
</g>
<g id="LA21">
<path id="LA21_2" fill-rule="evenodd" clip-rule="evenodd" d="M1313.75 1300.33C1313.75 1324.34 1304.23 1302.74 1303.58 1330.66C1303.38 1339.33 1302.84 1340.66 1300.51 1347.85C1296.2 1361.2 1296.32 1353.61 1295.53 1363.12C1318.21 1369.18 1297.43 1382.4 1353.43 1404.43C1360.68 1407.28 1362.98 1409.57 1368.79 1413.37C1390.88 1427.84 1397 1421.44 1414.96 1442.11C1411.18 1447.76 1402.5 1454.56 1400.53 1461.51C1398.7 1467.92 1402.74 1464.19 1398.2 1473.79C1394.37 1481.87 1393.48 1477.29 1392.69 1486.67C1418.52 1486.67 1404.06 1492.75 1435.2 1492.75C1446.44 1492.75 1429.13 1493.59 1447.47 1488.81C1458.96 1485.83 1454.21 1482.83 1475.69 1468.44C1475.69 1430.14 1474.4 1450.74 1483.04 1423.06C1492.44 1392.98 1473.61 1408.7 1461.52 1409.7C1454.37 1399.01 1451.4 1382.92 1451.4 1365.15C1432.58 1365.15 1446.56 1361.36 1435.47 1361.92C1429.67 1362.21 1432.12 1364.78 1423.6 1364.55C1375.95 1363.29 1411.97 1352.32 1398.23 1319.12C1395.79 1313.19 1393.64 1306.93 1390.7 1302.33C1377.28 1281.36 1329.96 1296.55 1313.75 1300.33V1300.33Z" fill="#A2A2A2"/>
<g id="Centre_5">
<circle id="Ellipse 95_5" cx="1361.78" cy="1368.78" r="31.7763" fill="white"/>
</g>
</g>
<g id="LA30">
<path id="LA30_2" fill-rule="evenodd" clip-rule="evenodd" d="M1469.62 1596.04C1481.81 1598.88 1482.54 1606.33 1493.29 1612.87C1504.25 1619.54 1504.85 1623.6 1514.15 1632.5C1516.15 1634.41 1514.14 1635.52 1512.12 1638.58C1501.77 1654.05 1506.05 1638.7 1506.05 1662.89C1520.2 1659.1 1535.11 1630.86 1535.84 1618.34C1536.39 1609.06 1534.41 1619.82 1535.69 1609.27C1536.38 1603.6 1537.32 1602.89 1538.44 1598.07C1549.21 1597.17 1551.04 1594.58 1553.88 1585.15C1556.85 1575.32 1558.79 1572.77 1556.66 1563.64C1563.44 1568.18 1564.55 1571.62 1575.01 1568.02C1584.79 1564.65 1582.22 1560.32 1587.06 1551.52C1593.88 1539.14 1604.07 1533.29 1612.84 1522.63C1622.78 1510.54 1616.92 1505.01 1618.53 1491.94C1620.64 1474.8 1619.03 1480.56 1616.85 1468.79C1614.03 1453.6 1623.17 1465.66 1619.45 1440.91C1618.79 1436.5 1625.16 1441.72 1632.71 1435.16C1639.63 1429.15 1634.33 1429.17 1652.61 1416.59C1692.7 1388.99 1672.75 1407.06 1703.35 1390.39C1719.72 1381.47 1703.72 1385.72 1714.55 1381.35C1714 1356.23 1696.28 1368.32 1679.88 1369.27C1660.83 1370.38 1660.11 1353.35 1656.72 1337.94C1654.51 1327.9 1645.66 1310.51 1632.7 1307.29C1625.53 1305.5 1615.64 1305.3 1607.79 1303.86C1600.54 1302.52 1592.65 1298.94 1585 1298.3C1576.46 1304.03 1575.82 1312.69 1562.73 1306.4C1558.08 1296.69 1561.94 1295.68 1562.73 1286.15C1553.57 1284.02 1530.29 1274.46 1522.71 1267.46C1517.75 1262.88 1517.82 1260.81 1516.18 1253.75C1491.93 1253.75 1480.41 1253.28 1459.99 1249.05C1442.32 1245.4 1431.09 1258.31 1412.94 1259.82C1414.77 1268.47 1414.99 1262.05 1411.9 1270.77C1410.1 1275.86 1409.76 1278.25 1407.99 1283.23C1403.03 1297.27 1396.71 1292.24 1404.84 1304.38C1401.73 1308.86 1404.51 1306.9 1398.77 1308.43C1399.57 1318.08 1405.76 1324.57 1406.18 1332.97C1406.75 1344.38 1400.87 1342 1404.84 1359.07C1412.52 1359.07 1424.8 1360.65 1428.33 1359.98C1428.36 1359.97 1440.03 1354.69 1450.96 1359.48C1458.01 1362.58 1454.05 1358.67 1455.74 1366.88C1456.52 1370.66 1456.78 1374.99 1457.49 1379.31C1463.23 1414.41 1458.38 1405.63 1474.85 1400.54C1484.58 1397.52 1483.76 1401.57 1489.86 1405.65C1488.74 1419.16 1482.8 1431.67 1481.76 1444.14C1495.68 1444.14 1496.98 1441.87 1500.6 1453.65C1506.73 1473.59 1503.8 1482.46 1489 1491.89C1461.57 1509.36 1466.43 1501.95 1440.65 1532.63C1431.45 1543.58 1422.7 1554.11 1414.96 1565.67C1429.06 1564.49 1424.69 1561.48 1435.26 1569.63C1450.45 1581.34 1447.11 1575.36 1447.35 1585.92C1461.93 1584.7 1461.19 1583.45 1469.62 1596.04Z" fill="#A2A2A2"/>
<g id="Centre_6">
<circle id="Ellipse 95_6" cx="1576.75" cy="1411.15" r="31.7763" fill="white"/>
</g>
</g>
<g id="LA37">
<path id="LA37_2" fill-rule="evenodd" clip-rule="evenodd" d="M1629.53 960.058C1629.53 968.101 1633.59 970.236 1633.59 978.285C1633.59 984.363 1621.71 984.722 1618.39 987.393C1613.07 991.67 1616.62 989.064 1612.55 1005.86C1608.84 1021.15 1604.46 1028.55 1600.46 1042.36L1582.71 1097.52C1581.92 1099.82 1580.6 1103.45 1579.61 1106.81C1574.13 1125.5 1589.93 1111.01 1580.15 1157.74C1576.52 1175.02 1543.23 1214.28 1531.24 1232.36C1527.11 1238.6 1525.7 1243.65 1520.22 1247.67C1526.45 1256.97 1517.89 1262.74 1557.99 1276.72C1573.67 1282.19 1573.35 1287.91 1566.78 1300.33C1578.99 1298.99 1568.14 1296.46 1580.62 1291.73C1586.35 1289.55 1593.34 1292.1 1599.4 1293.99C1631.52 1304.03 1652.77 1287.92 1665.94 1344.92C1667.1 1349.93 1668.62 1361.09 1674.07 1361.09C1697.38 1361.09 1720.62 1350.34 1720.62 1379.32L1744.89 1376.99C1745.13 1376.99 1745.68 1377.07 1745.93 1377.11C1748.69 1377.47 1749.85 1379.51 1756.77 1379.32C1764.39 1379.12 1763.33 1377.29 1773.26 1377.29C1773.26 1358.3 1780.25 1364.59 1797.55 1352.99C1791.91 1328.77 1796.75 1339.27 1814.56 1309.25C1834.2 1276.14 1825.48 1305.75 1824.83 1274C1824.64 1264.75 1828.86 1254.17 1838.03 1251.72C1838.03 1196.17 1848.54 1230.89 1841.09 1185.72C1838.49 1170 1846.05 1179.82 1841.34 1161.42C1840.8 1159.27 1840.97 1161.58 1840.51 1157.11C1838.53 1137.79 1846.13 1151.09 1846.13 1128.16C1873.67 1128.16 1867.11 1126.61 1876.72 1102.06C1878.6 1097.26 1877.64 1099.34 1880.8 1096.02C1888.91 1087.5 1887.34 1086.31 1893.06 1081.95C1914.39 1065.66 1903.78 1069.85 1923.59 1049.71C1936.86 1036.22 1943.18 1022.68 1938.43 999.372C1923.02 923.832 1913.9 966.859 1883.4 947.073L1862.62 929.38C1855.11 923.773 1847.9 918.102 1839.98 913.548C1816.2 899.886 1817.82 897.762 1799.14 900.886L1784.43 903.722C1780.58 902.992 1777.98 899.474 1772.88 898.762C1767.02 897.95 1766.98 900.945 1757.68 896.738C1749.49 893.037 1745.15 882.782 1720.04 900.733L1714.87 905.687C1710.74 909.259 1714.59 907.788 1708.48 909.417C1709.12 901.78 1710.29 896.097 1714.55 891.19C1705.5 878.823 1711.19 893.12 1712.53 877.01C1701.22 871.027 1704.88 867.909 1694.31 874.987C1692.48 871.292 1692.75 872.457 1692.28 866.885L1659.51 913.083C1656.46 917.996 1629.53 959.475 1629.53 960.058V960.058Z" fill="#DE7676"/>
<g id="Centre_7">
<circle id="Ellipse 95_7" cx="1692.12" cy="1221.79" r="31.7763" fill="white"/>
</g>
</g>
<g id="LA26">
<path id="LA26_2" fill-rule="evenodd" clip-rule="evenodd" d="M1147.76 1160.57H1151.81C1151.18 1168.16 1146.16 1174.04 1139.66 1178.81C1141.59 1186.05 1142.54 1182.66 1143.07 1187.47C1144.22 1198 1131.35 1202.91 1149.78 1215.26C1145.23 1223.88 1143.77 1232.8 1133.59 1235.52C1134.89 1251.22 1142.92 1253.42 1145.14 1262.45C1149.38 1279.74 1142.72 1280.05 1157.88 1290.2C1148.7 1329.63 1158.04 1309.86 1171.29 1355.88C1172.04 1358.5 1171.54 1388.73 1188.19 1371.24C1193.02 1366.17 1191.79 1363.48 1198.47 1359.17C1206.05 1354.27 1205.95 1357.82 1208.49 1346.91C1223.32 1348.15 1210.31 1353.82 1230.66 1355.12C1242.2 1355.85 1248.33 1357.19 1251 1367.17C1264.69 1363.51 1254.2 1348.36 1291.48 1357.05C1293.98 1352.33 1296.2 1347.19 1297.92 1341.21C1301.36 1329.28 1292.3 1287.33 1360.32 1286C1384.16 1285.53 1383.59 1294.79 1396.75 1298.3C1399.6 1287.59 1412.83 1272.86 1407.29 1257.48C1400.55 1238.76 1388.65 1248.53 1388.65 1219.32C1376.14 1219.32 1359.85 1216.24 1348.16 1215.26C1349.27 1210.5 1350.05 1209.28 1350.19 1203.11C1349.92 1202.71 1349.43 1201.66 1349.37 1201.91C1349.3 1202.18 1348.77 1200.88 1348.7 1200.55C1348.12 1197.82 1348.16 1197.9 1348.16 1195.01C1345.5 1193.06 1348.09 1195.47 1344.91 1192.19L1342.09 1188.93C1344.78 1178.87 1347.95 1184.91 1344.33 1172.77C1334.53 1139.93 1328.73 1155 1310.23 1149.92C1304.29 1148.3 1306.43 1147 1300.73 1143.23C1290.55 1136.5 1289.41 1142.22 1281.36 1130.2C1274 1130.36 1274.82 1131.29 1269.96 1130.9C1261.36 1130.2 1252.91 1125.86 1247.16 1121.88C1220.58 1103.45 1228.73 1094.11 1228.73 1063.35C1201.68 1063.35 1199.21 1067.05 1178.62 1082.09C1174.63 1085 1177.11 1083.38 1173.51 1085.07L1169.19 1086.82C1142.93 1100.54 1172.55 1093.74 1137.64 1093.74C1144.06 1105.88 1154.09 1118.56 1155.86 1126.14C1146.68 1139.86 1147.76 1126.36 1147.76 1160.57V1160.57Z" fill="#DE7676"/>
<g id="Centre_8">
<circle id="Ellipse 95_8" cx="1263.87" cy="1241.86" r="31.7763" fill="white"/>
</g>
</g>
<g id="LA38">
<path id="LA38_2" d="M1435.26 792C1446.82 794.33 1449.29 794.942 1450.47 789.935C1452.1 783.08 1456.66 781.215 1464.71 778.903C1481.14 774.19 1490.13 798.027 1497.64 784.647C1505.79 786.073 1520.59 787.088 1525.85 780.997C1531.12 774.907 1541.8 754.138 1548.43 741.383C1549.99 738.367 1551.71 731.504 1555.85 735.876C1557.45 737.565 1559.9 745.843 1560.39 747.696C1562.72 756.598 1562.7 764.541 1565.09 773.384C1573.31 803.796 1578.73 787.175 1586.63 796.448C1596.33 807.85 1579.21 811.986 1572.24 823.736C1565.21 835.58 1568.25 828.813 1559.24 835.032C1556.3 837.065 1554.89 839.911 1552.79 842.764C1539.66 860.591 1547.85 862.615 1524.27 868.91C1535.95 884.861 1558.41 857.796 1570.83 856.761C1570.83 836.827 1573.73 838.045 1589.6 840.004C1601.97 841.528 1606.53 836.609 1623.46 840.557C1619.81 847.967 1615.59 863.782 1608.87 868.487C1603.79 872.102 1601.82 875.028 1599.37 881.266C1597.36 886.496 1595.69 890.456 1595.12 897.269C1604.62 890.903 1603.65 870.94 1623.46 870.94C1623.46 836.739 1658.08 852.248 1680.14 862.838C1679.31 872.776 1654.76 906.742 1646.92 918.715C1616.66 964.907 1620.11 953.17 1625.49 976.263C1610.48 983.464 1609.63 978.634 1608.19 990.436C1605.92 1008.86 1591.33 1045.12 1585.46 1063.82C1582.21 1074.19 1570.82 1105.41 1570.76 1114.19C1570.67 1125.15 1572.44 1119.93 1574.96 1125.84C1575.09 1126.15 1575.37 1126.67 1575.47 1126.99L1575.86 1129.56C1577.48 1159.4 1564.17 1173.25 1548.55 1195L1528.63 1223.67C1525.87 1227.38 1517.71 1240.83 1515.17 1242.61C1502.07 1251.85 1476.06 1244.16 1461 1242.08C1432.36 1238.15 1428.59 1253.3 1408.89 1253.75C1408.58 1240 1404.29 1247.93 1396.03 1238.25C1390.75 1232.07 1392.69 1225.59 1392.69 1215.26C1376.91 1215.26 1368.82 1213.24 1352.21 1213.24L1350.19 1203.11C1350.19 1200.22 1350.23 1200.29 1349.65 1197.57C1349.58 1197.24 1349.05 1196.96 1348.98 1196.21C1348.92 1195.49 1348.43 1195.42 1348.16 1195.01C1345.9 1185.3 1354.23 1153.22 1329.47 1148.89C1323.38 1147.83 1317.98 1149.46 1312.75 1147.4C1312.7 1147.38 1295.6 1134 1281.36 1130.2C1277.84 1127.14 1279.49 1128.12 1274.8 1126.63L1255.75 1121.39C1244.65 1117.7 1240.77 1115.89 1237 1105.72C1229.49 1085.55 1228.59 1063.41 1248.97 1053.23C1257.42 1050.97 1264.84 1041.53 1269.21 1035C1284.02 1021.27 1294.8 1029.81 1305.65 1051.2C1335.46 1048.71 1362.65 1047.15 1392.69 1047.15C1399.2 1029.5 1410.93 1015.81 1396.69 999.402C1402.18 989.005 1422.22 941.849 1423.06 931.7L1428.89 921.333C1437.14 898.781 1441.28 902.482 1441.28 887.144C1436.47 884.596 1434.37 882.466 1429.13 881.066C1425.07 874.994 1418.93 872.217 1412.12 867.704C1406.62 864.05 1400.18 858.22 1394.72 856.761C1393.5 852.189 1376.93 816.158 1388.81 804.273C1394.11 798.966 1396.95 800.049 1406.57 799.801L1410.92 793.971C1421.06 791.258 1412.86 787.487 1435.26 792Z" fill="#A2A2A2"/>
<g id="Centre_9">
<circle id="Ellipse 95_9" cx="1473.3" cy="1192.95" r="31.7763" fill="white"/>
</g>
</g>
<g id="LA09">
<path id="LA09_2" fill-rule="evenodd" clip-rule="evenodd" d="M1048.57 2203.67C1052.36 2202.79 1055.54 2200.95 1058.12 2199.46C1064.65 2195.67 1067.39 2194.08 1066.83 2215.79C1066.32 2234.91 1069.24 2236.77 1072.19 2238.64C1074.22 2239.93 1076.26 2241.22 1077.22 2248.11C1077.26 2248.41 1090.59 2249.21 1104.5 2250.04C1119.69 2250.95 1135.58 2251.91 1135.61 2252.28C1133.58 2259.92 1130 2263.54 1123.31 2266.31C1118.17 2268.43 1114.38 2269.86 1111.58 2270.91C1106.68 2272.75 1104.8 2273.46 1103.97 2274.81C1103.46 2275.66 1103.36 2276.77 1103.2 2278.56C1102.97 2281.18 1102.61 2285.28 1100.61 2292.23C1100.26 2293.49 1100.28 2295.82 1100.31 2298.59C1100.42 2308.57 1100.58 2324.21 1083.01 2315.22C1080.94 2314.16 1071.94 2305.81 1070 2303.41C1062.52 2294.18 1066.7 2293.77 1076.46 2292.79L1076.81 2292.76C1077.59 2292.68 1078.32 2292.61 1079 2292.55C1087.73 2291.74 1088.81 2291.64 1089.06 2280.64C1073.46 2280.99 1068.21 2287.72 1063.82 2293.36C1062.16 2295.49 1060.62 2297.46 1058.69 2298.87C1051.7 2294.19 1052.71 2290.71 1054.86 2283.31C1055.43 2281.37 1056.07 2279.16 1056.67 2276.59C1065.81 2276.59 1066.09 2276.26 1066.99 2275.21C1067.58 2274.51 1068.45 2273.5 1072.39 2272.05C1076.04 2270.71 1077.01 2270.84 1078.3 2271.02C1079.49 2271.18 1080.95 2271.38 1085.01 2270.52C1083.87 2268.97 1083.35 2267.98 1083.02 2267.36C1082.77 2266.88 1082.63 2266.62 1082.42 2266.48C1082.15 2266.31 1081.77 2266.32 1080.91 2266.35C1079.87 2266.39 1078.12 2266.45 1075.02 2266.22C1073.2 2266.09 1062.78 2266.45 1061.07 2266.8C1052.23 2268.61 1050.59 2273.44 1050.59 2284.69C1047.45 2283.96 1045.98 2283.31 1044.52 2282.67C1043.05 2282.02 1041.59 2281.38 1038.45 2280.64C1041.15 2276.61 1042.13 2275.03 1044.52 2270.52H1030.35C1030.18 2262.61 1028.95 2260.97 1027.45 2258.97C1026.44 2257.61 1025.29 2256.08 1024.28 2252.28C1037.81 2253.41 1037.98 2252.82 1038.21 2251.98C1038.4 2251.29 1038.64 2250.44 1046.54 2250.26C1043.46 2247.58 1041.19 2245.14 1038.5 2242.11C1037.67 2241.17 1037.08 2240.43 1036.62 2239.85C1035.99 2239.07 1035.58 2238.56 1035.07 2238.17C1034.12 2237.43 1032.82 2237.13 1029.08 2236.26L1028.33 2236.08C1029.24 2232.68 1030.4 2231.25 1031.28 2230.18C1032.54 2228.63 1033.18 2227.84 1031.53 2222.95C1030.01 2218.43 1027.1 2217.23 1023.18 2215.62C1018.18 2213.56 1011.53 2210.83 1004.03 2199.63C1008.87 2193.02 1011.29 2195.02 1012.27 2195.84C1012.48 2196.02 1012.63 2196.14 1012.72 2196.11C1012.91 2196.03 1012.84 2195.22 1012.6 2192.64C1012.48 2191.38 1012.32 2189.7 1012.13 2187.47C1019.47 2188.08 1020.19 2189.5 1021.37 2191.82C1022.15 2193.35 1023.12 2195.27 1026.3 2197.6C1026.64 2196.17 1026.91 2195.18 1027.15 2194.34C1027.68 2192.44 1028.01 2191.25 1028.33 2187.47C1026.58 2186.55 1025.36 2186 1024.43 2185.58C1021.73 2184.38 1021.48 2184.26 1018.2 2179.37C1018.8 2178.48 1019.25 2177.74 1019.63 2177.12C1021.51 2174.05 1021.62 2173.85 1028.33 2173.3C1027.81 2167.09 1026.67 2165.88 1024.18 2163.25C1023.62 2162.65 1022.98 2161.97 1022.26 2161.14C1023.86 2158.95 1024.17 2157.9 1024.31 2157.42C1024.37 2157.24 1024.4 2157.14 1024.46 2157.09C1024.54 2157.03 1024.68 2157.05 1024.96 2157.09C1025.61 2157.18 1027.02 2157.37 1030.35 2157.09C1028.52 2149.23 1029.56 2145.2 1030.38 2142.05C1031.02 2139.57 1031.52 2137.64 1030.35 2134.81C1026.26 2137.82 1025.93 2139.81 1025.25 2143.96C1025.02 2145.35 1024.75 2146.99 1024.28 2148.99H1020.23C1020.23 2147.21 1020.17 2145 1020.1 2142.66C1019.97 2137.7 1019.81 2132.12 1020.19 2128.69C1020.86 2122.54 1021.33 2122.1 1022.8 2120.74C1023.6 2119.99 1024.71 2118.97 1026.3 2116.58C1014.13 2115.57 1011.42 2104.66 1022.3 2102.3C1030.57 2100.5 1032.79 2102.41 1035.31 2104.57C1037.25 2106.23 1039.37 2108.05 1044.52 2108.48C1044.22 2108.03 1043.92 2107.58 1043.62 2107.14L1043.6 2107.12C1040.57 2102.62 1037.92 2098.7 1036.42 2092.28C1035.86 2092.65 1035.33 2093.02 1034.8 2093.37C1025.93 2099.37 1022.02 2102.01 1014.16 2090.25C1018.05 2088.45 1018.34 2088.53 1020.78 2089.29C1021.62 2089.55 1022.71 2089.88 1024.28 2090.25C1023.82 2084.68 1023.41 2084.31 1022.74 2083.69C1022.16 2083.16 1021.39 2082.45 1020.23 2078.1C1020.82 2077.7 1021.36 2077.35 1021.84 2077.03C1024.05 2075.58 1025.2 2074.82 1025.79 2073.76C1026.43 2072.59 1026.4 2071.06 1026.35 2067.87C1026.33 2066.77 1026.3 2065.47 1026.3 2063.92C1022.64 2062.16 1019.19 2061.77 1016.21 2061.44C1010.69 2060.82 1006.78 2060.38 1006.06 2051.77C1002.77 2053.51 1000.49 2054.33 998.967 2054.88C997.577 2055.38 996.82 2055.66 996.509 2056.19C996.136 2056.83 996.404 2057.84 996.994 2060.07C997.261 2061.08 997.594 2062.33 997.964 2063.92H989.864C989.531 2062.48 989.253 2061.49 989.015 2060.63C988.489 2058.75 988.157 2057.56 987.841 2053.79C992.658 2052.51 994.963 2050.33 997.941 2047.51L997.942 2047.51C998.895 2046.61 999.916 2045.64 1001.11 2044.62C1002.68 2043.28 1003.81 2042.41 1004.59 2041.79C1005.7 2040.93 1006.13 2040.6 1006.17 2040.22C1006.2 2039.98 1006.08 2039.71 1005.87 2039.28C1005.38 2038.27 1004.44 2036.33 1004.03 2031.51C1008.33 2030.51 1012.14 2030.53 1015.18 2030.54C1017.68 2030.55 1019.66 2030.55 1020.94 2029.99C1024.2 2028.56 1024.7 2027.24 1025.33 2025.6C1025.96 2023.98 1026.7 2022.04 1030.35 2019.36C1031.48 2024.71 1030.79 2026.01 1030.28 2026.94C1029.82 2027.79 1029.53 2028.33 1030.96 2031.39C1035.15 2040.34 1034.11 2043.12 1032.25 2048.06C1031.65 2049.66 1030.97 2051.47 1030.35 2053.79C1036.28 2049.82 1037.02 2046.88 1038.09 2039.16C1039.25 2030.85 1038.37 2027.27 1037.07 2022.05C1036.86 2021.21 1036.64 2020.32 1036.42 2019.36C1048.52 2011.26 1049 2012.28 1049.48 2013.31C1049.76 2013.91 1050.04 2014.5 1052.62 2013.29C1050.46 2010.34 1049.19 2009.56 1047.93 2008.79C1046.52 2007.93 1045.12 2007.07 1042.5 2003.16C1044.8 2001.94 1046.89 2001.03 1048.77 2000.22L1048.77 2000.22C1056.31 1996.94 1060.4 1995.16 1060.72 1980.88C1058.54 1979.83 1056.47 1979.03 1054.41 1978.24C1051.85 1977.25 1049.29 1976.26 1046.54 1974.8C1046.7 1968 1046.85 1967.87 1047.5 1967.34C1047.85 1967.05 1048.34 1966.65 1049.05 1965.02C1051.76 1958.82 1051.47 1957.37 1051.19 1956.03C1050.84 1954.33 1050.52 1952.79 1056.39 1941.98C1059.24 1936.71 1058.85 1933.33 1058.48 1930.16C1058.06 1926.53 1057.67 1923.18 1062.21 1917.61C1065.08 1914.09 1065.02 1915.61 1065 1916.18C1065 1916.29 1065 1916.36 1065.01 1916.36C1065.05 1916.37 1065.19 1916.03 1065.64 1914.88C1065.91 1914.22 1066.27 1913.29 1066.79 1912.01C1066.65 1911.82 1066.49 1911.58 1066.34 1911.36L1066.34 1911.36C1066.19 1911.13 1066.06 1910.93 1065.97 1910.81L1064.23 1908.49C1064.12 1908.34 1063.96 1908.15 1063.8 1907.96C1063.63 1907.75 1063.46 1907.54 1063.33 1907.37C1062.22 1905.88 1061.51 1905.25 1060.98 1904.79C1060.04 1903.95 1059.7 1903.65 1058.69 1899.86C1059.34 1899.71 1059.93 1899.58 1060.46 1899.46C1063.18 1898.84 1064.44 1898.55 1065.42 1897.86C1066.28 1897.27 1066.93 1896.38 1068.14 1894.71C1068.35 1894.43 1068.57 1894.12 1068.81 1893.78C1068.6 1893.69 1068.25 1893.79 1068.06 1893.84L1068.06 1893.84L1068.06 1893.84C1068.01 1893.85 1067.97 1893.86 1067.95 1893.87L1061.72 1894.3C1059.17 1893.66 1058.83 1893.15 1058.44 1892.56C1057.97 1891.84 1057.43 1891.02 1052.62 1889.74C1051.86 1891.16 1051.32 1892.4 1050.85 1893.46C1048.99 1897.64 1048.3 1899.21 1040.47 1899.86C1040.04 1899.45 1039.68 1899.11 1039.36 1898.81C1037.91 1897.44 1037.59 1897.14 1037.47 1896.78C1037.44 1896.68 1037.42 1896.57 1037.4 1896.44C1037.31 1895.93 1037.14 1895 1035.83 1892.36C1031.57 1883.84 1029.2 1874.36 1032.02 1865.1C1032.56 1863.32 1033.04 1861.78 1033.49 1860.33C1034.83 1855.99 1035.91 1852.53 1037.54 1846.29C1039.57 1838.49 1040.28 1837.98 1041.56 1837.06C1042.45 1836.42 1043.61 1835.58 1045.68 1831.99C1049.92 1824.63 1046.45 1815.26 1043.33 1806.81C1042.03 1803.29 1040.78 1799.93 1040.18 1796.94C1039.06 1791.4 1040.06 1791.07 1041.04 1790.74C1042.15 1790.38 1043.24 1790.02 1041.14 1781.99L1038.45 1762.13C1040.26 1761.26 1041.77 1760.94 1043.1 1760.66C1047.66 1759.68 1050.09 1759.16 1055.22 1738.4L1063.86 1708.56C1064.58 1706.86 1066.29 1704.53 1068.29 1701.84C1071.91 1696.93 1076.46 1690.78 1077.53 1684.87C1077.81 1683.33 1077.72 1681.86 1077.63 1680.32C1077.44 1677.38 1077.25 1674.15 1079.54 1669.57C1081.14 1666.39 1082.27 1665.12 1083 1664.29C1084.15 1662.99 1084.33 1662.79 1083.86 1657.87C1083.49 1654 1082.81 1651.91 1082.31 1650.36C1081.54 1647.99 1081.17 1646.85 1082.88 1642.56C1084.13 1639.41 1085.33 1638.01 1086.3 1636.87C1087.72 1635.22 1088.65 1634.13 1088.54 1628.99L1085.04 1593.98C1084.85 1586.34 1083.76 1582.4 1083.03 1579.74C1081.72 1575 1081.52 1574.28 1089.44 1563.99C1095.79 1555.73 1093.1 1549.89 1090.15 1543.51C1088.96 1540.92 1087.72 1538.25 1087.03 1535.28C1088.21 1530.86 1089.66 1529.45 1091.02 1528.13C1092.63 1526.56 1094.13 1525.11 1094.93 1518.89C1095.17 1517.03 1095.15 1515.18 1095.12 1513.34C1095.09 1511.29 1095.06 1509.24 1095.4 1507.2C1096.12 1502.92 1096.33 1502.72 1096.89 1502.21C1097.31 1501.82 1097.91 1501.26 1099.06 1498.71C1099.53 1497.64 1099.89 1496.87 1100.15 1496.3C1100.68 1495.17 1100.84 1494.82 1100.88 1494.45C1100.9 1494.29 1100.89 1494.13 1100.88 1493.89C1100.86 1493.23 1100.82 1492.01 1101.21 1488.71C1101.76 1484.12 1102.8 1481.59 1103.88 1478.98C1104.89 1476.54 1105.93 1474.02 1106.62 1469.68C1107.41 1464.76 1107.23 1464.19 1106.8 1462.81C1106.59 1462.12 1106.31 1461.22 1106.05 1459.44C1104.79 1450.45 1106.77 1447.48 1108.76 1444.46C1111.18 1440.82 1113.63 1437.12 1110.4 1422.67C1108.94 1416.12 1109.84 1413.22 1111.03 1409.36C1111.6 1407.52 1112.24 1405.46 1112.72 1402.68C1114.08 1394.83 1113.14 1393.91 1110.85 1391.66C1109.88 1390.7 1108.66 1389.5 1107.27 1387.43C1108.4 1385.3 1109.39 1383.5 1110.27 1381.89C1114.6 1374.02 1116.26 1371 1117.51 1359.18C1118.11 1353.44 1119.47 1349.99 1120.6 1347.12C1122.34 1342.68 1123.55 1339.61 1120.62 1331.6C1120.03 1330 1119.59 1328.86 1119.26 1328.01C1118.69 1326.56 1118.46 1325.96 1118.41 1325.34C1118.38 1324.91 1118.45 1324.47 1118.56 1323.72C1118.74 1322.53 1119.04 1320.56 1119.26 1316.58C1120.42 1295.36 1119.26 1293.31 1117.92 1290.92C1116.72 1288.79 1115.37 1286.4 1115.37 1269.95L1127.15 1261.35C1129.64 1256.94 1129.3 1255.9 1128.92 1254.76C1128.6 1253.81 1128.26 1252.8 1129.54 1249.69L1138.46 1256.98C1140.93 1260.73 1141.72 1265.16 1142.54 1269.81C1143.25 1273.81 1143.98 1277.97 1145.85 1281.99C1147.11 1284.7 1147.55 1286.12 1147.8 1286.89C1147.96 1287.39 1148.03 1287.62 1148.18 1287.77C1148.32 1287.89 1148.51 1287.95 1148.87 1288.06C1149.59 1288.27 1150.96 1288.68 1153.83 1290.2C1153.15 1291.49 1152.62 1292.45 1152.2 1293.2C1151.43 1294.57 1151.05 1295.27 1150.85 1296.01C1150.64 1296.77 1150.63 1297.58 1150.61 1299.21C1150.6 1300.12 1150.58 1301.3 1150.53 1302.86L1150.36 1315.83C1151.89 1323.67 1154.86 1328.53 1157.92 1333.55C1162.48 1341.01 1167.25 1348.83 1167.85 1367.32C1168.33 1382.36 1172.78 1381.22 1183.49 1378.47C1184.96 1378.1 1186.54 1377.69 1188.25 1377.3C1188.25 1401.72 1182.36 1404.19 1170.78 1409.05C1166.07 1411.03 1160.41 1413.4 1153.83 1417.81C1153.91 1421.26 1154.36 1423.37 1154.75 1425.18C1155.33 1427.88 1155.76 1429.92 1154.59 1434.74C1153.73 1438.31 1152.93 1439.69 1152.41 1440.58C1151.55 1442.06 1151.49 1442.17 1153.28 1448.75C1154.26 1452.37 1154.89 1454.1 1155.23 1455.03C1155.47 1455.68 1155.56 1455.93 1155.52 1456.16C1155.5 1456.3 1155.43 1456.44 1155.32 1456.65C1154.96 1457.32 1154.2 1458.76 1153.15 1463.57C1152.07 1468.57 1152.32 1469.36 1152.8 1470.88C1153.19 1472.1 1153.72 1473.8 1153.83 1478.57C1151.47 1481.8 1150.63 1482.21 1149.81 1482.61C1148.98 1483.02 1148.17 1483.41 1145.8 1486.74L1134.83 1508.17C1129.84 1515.47 1129.24 1518.58 1128.41 1522.92C1127.96 1525.26 1127.44 1527.96 1126.12 1531.87C1125.35 1534.18 1123.99 1536.3 1122.77 1538.21C1121.78 1539.75 1120.89 1541.15 1120.45 1542.4C1118.04 1549.3 1119.34 1556.71 1120.46 1563.09L1120.46 1563.09C1120.88 1565.47 1121.28 1567.7 1121.44 1569.71C1120.86 1569.76 1120.36 1569.8 1119.91 1569.84C1117.96 1569.99 1117.15 1570.06 1116.4 1570.3C1115.86 1570.47 1115.35 1570.73 1114.48 1571.17C1114.16 1571.33 1113.79 1571.52 1113.35 1571.74V1587.94C1100.43 1594.78 1103.42 1599.49 1107.88 1606.51C1110.17 1610.11 1112.85 1614.32 1113.97 1619.73C1114.16 1620.67 1114.32 1621.63 1114.48 1622.66L1114.48 1622.66C1114.8 1624.68 1115.17 1626.98 1115.98 1629.96L1118.74 1647.6C1119.25 1649.22 1119.89 1650.76 1120.54 1652.3C1122.72 1657.52 1124.98 1662.91 1122.79 1672.54C1121.95 1676.25 1120.09 1677.79 1118.08 1679.46C1116.18 1681.04 1114.14 1682.74 1112.67 1686.5C1108.8 1696.4 1109.77 1707.45 1110.64 1717.51C1110.95 1721.06 1111.25 1724.49 1111.33 1727.7C1104.51 1729.52 1102.28 1733.26 1098.92 1738.91C1098.59 1739.46 1098.25 1740.02 1097.9 1740.6C1089.97 1753.72 1091.62 1762.89 1094 1776.16C1095.44 1784.22 1097.16 1793.8 1097.16 1806.69C1086.53 1809.53 1086.35 1813.48 1086.01 1820.8L1086.01 1820.8C1085.97 1821.64 1085.93 1822.52 1085.87 1823.45C1085.53 1828.79 1085.49 1828.79 1084.84 1828.77C1084.31 1828.76 1083.38 1828.74 1081.56 1831.59L1081.18 1832.18C1079.02 1835.58 1078.57 1836.28 1078.74 1836.75C1078.79 1836.87 1078.87 1836.98 1078.98 1837.12C1079.37 1837.59 1080.03 1838.41 1080.14 1841.42L1076.55 1861.04C1074.54 1867.04 1075.73 1875.41 1076.91 1883.72C1078.02 1891.58 1079.13 1899.4 1077.53 1905.12L1072.85 1914C1072.24 1915.44 1069.41 1924.24 1069.37 1924.63C1068.68 1930.2 1070.88 1934.31 1073.13 1938.52C1074.26 1940.63 1075.4 1942.78 1076.2 1945.14C1076.69 1946.6 1076.85 1947.55 1077.04 1948.57C1077.19 1949.44 1077.35 1950.37 1077.73 1951.7C1080.73 1962.26 1080.94 1970.44 1081.04 1982.66L1089.06 1984.93V1991.01C1087.4 1991.01 1086.14 1990.98 1085.15 1990.96C1083.4 1990.92 1082.47 1990.9 1081.57 1991.08C1080.55 1991.28 1079.57 1991.75 1077.47 1992.76C1077.29 1992.84 1077.11 1992.93 1076.91 1993.03C1077.42 1997.72 1080.47 2000.4 1083.67 2003.2C1086.68 2005.85 1089.83 2008.61 1091.08 2013.29C1087.4 2015.75 1085.9 2016.37 1083.65 2017.28C1082.44 2017.78 1081.02 2018.36 1078.93 2019.36C1078.93 2026.79 1079.98 2028.69 1080.77 2030.15C1081.27 2031.05 1081.67 2031.78 1081.67 2033.54C1081.67 2035.22 1081.37 2035.82 1080.96 2036.67C1080.36 2037.89 1079.53 2039.6 1079 2045.7C1078.6 2050.39 1077.81 2054.36 1077.03 2058.29C1075.95 2063.71 1074.89 2069.06 1074.89 2076.08C1058.54 2087.03 1060.47 2093.16 1062.63 2099.99C1063.94 2104.12 1065.32 2108.51 1062.77 2114.38L1058.11 2126.13C1056.57 2129.92 1054.93 2131.35 1053.16 2132.9C1051.65 2134.22 1050.05 2135.62 1048.33 2138.62C1048.13 2138.96 1048.04 2139.22 1047.94 2139.52C1047.73 2140.12 1047.48 2140.86 1046.24 2142.61L1038.45 2148.99C1038.45 2150.86 1038.4 2153.13 1038.34 2155.56C1038.19 2161.68 1038.02 2168.83 1038.63 2173.11C1038.64 2173.45 1040.32 2178.88 1041.89 2183.92L1041.89 2183.92C1043.25 2188.29 1044.51 2192.38 1044.53 2192.62C1045.43 2195.1 1045.88 2196.57 1046.24 2197.75C1046.79 2199.56 1047.13 2200.68 1048.57 2203.67ZM1024.28 1924.17C1024.28 1930.46 1025.03 1930.32 1025.41 1930.25C1025.76 1930.19 1025.81 1930.18 1024.75 1934.95C1024.2 1937.43 1023.73 1938.09 1023.36 1938.62C1022.77 1939.44 1022.4 1939.96 1022.26 1946.45C1023.39 1946.71 1024.32 1946.95 1025.16 1947.18C1027.88 1947.89 1029.7 1948.36 1034.4 1948.47C1034.57 1940.76 1034.97 1940.38 1036.71 1938.75C1037.58 1937.94 1038.79 1936.81 1040.47 1934.29C1039.14 1929.29 1037.94 1928.51 1036.94 1927.86C1035.81 1927.12 1034.93 1926.55 1034.4 1920.11C1047.2 1916.69 1045.4 1907.83 1030.35 1899.86C1027.83 1905.12 1024.28 1916.41 1024.28 1924.17ZM1112.7 2286.45C1114.67 2285.14 1117.4 2283.32 1117.4 2274.57C1127.75 2279.54 1131.12 2273.06 1134.86 2265.89C1135.11 2265.41 1135.36 2264.92 1135.61 2264.44C1140.89 2268.31 1139.59 2269.09 1139.69 2269.37C1139.75 2269.55 1140.39 2269.52 1143.71 2269.98C1145.97 2270.29 1146.74 2270.03 1147.92 2269.63C1149.02 2269.26 1150.48 2268.77 1153.83 2268.49C1155.09 2273.2 1156.28 2274.34 1157.98 2275.98C1159.05 2277.01 1160.32 2278.23 1161.93 2280.64C1161.23 2283.66 1160.23 2285.58 1159.46 2287.06C1158.12 2289.64 1157.45 2290.93 1160.09 2294.46L1165.87 2298.92C1167.39 2300.22 1170.79 2304.21 1175.12 2309.31C1183.96 2319.7 1196.69 2334.66 1205.25 2340.59C1212.83 2345.85 1217.62 2346.37 1222.3 2346.87C1225.55 2347.22 1228.75 2347.57 1232.78 2349.51C1232.03 2358.47 1228.8 2360.25 1221.11 2361.03C1217.41 2361.41 1218.18 2361.23 1218.84 2361.08C1219.43 2360.95 1219.92 2360.83 1217 2361.16C1216.87 2361.18 1213.4 2361.83 1212.85 2361.95C1202.18 2364.18 1195.38 2362.79 1186.69 2361C1179.12 2359.45 1170.12 2357.61 1155.86 2357.61C1152.31 2357.61 1149.07 2358.33 1146.17 2358.97C1139.26 2360.51 1134.26 2361.63 1131.57 2351.54C1123.56 2355.77 1122.1 2356.6 1120.85 2356.36C1120.11 2356.22 1119.44 2355.71 1117.55 2355.31C1117.24 2355.24 1117.23 2355.2 1117.21 2355.14C1117.17 2355.02 1117.12 2354.87 1113.36 2354.35L1091 2349.47C1084.01 2348.11 1081.37 2349.2 1080.21 2348.32C1079.36 2347.68 1079.31 2345.96 1078.93 2341.4C1083.05 2341.31 1085.58 2340.96 1087.89 2340.64C1090.45 2340.28 1092.74 2339.97 1096.6 2340.09C1103.23 2340.28 1103.99 2341.03 1104.74 2341.77C1105.51 2342.52 1106.28 2343.28 1113.35 2343.43C1112.11 2341.59 1110.19 2339.65 1108.24 2337.68C1104.77 2334.18 1101.2 2330.59 1101.2 2327.23C1101.2 2320.38 1108.17 2311.31 1111.33 2309C1114.64 2315.68 1113.91 2317.01 1112.24 2320.05C1111.37 2321.64 1110.24 2323.7 1109.3 2327.23C1111.55 2328.74 1113.07 2330.34 1114.45 2331.77C1115.59 2332.97 1116.63 2334.05 1117.88 2334.87C1121.39 2337.16 1122.15 2337.68 1122.54 2337.48C1123.11 2337.18 1122.89 2335.33 1129.54 2335.33C1132.37 2335.33 1134.27 2338.11 1135.83 2340.4C1137.9 2343.43 1139.39 2345.61 1141.69 2339.38C1142.04 2338.44 1143.34 2338.89 1143.39 2338.79C1143.43 2338.69 1142.3 2338.09 1138.02 2335.24C1134.74 2333.05 1131.54 2331.55 1128.75 2330.24C1123.32 2327.69 1119.42 2325.85 1119.42 2321.15C1119.42 2313.82 1122.84 2311.84 1126.63 2309.65C1130.08 2307.65 1133.85 2305.47 1135.61 2298.87C1129.8 2298.87 1126.97 2299.4 1124.19 2299.92C1121.81 2300.37 1119.48 2300.81 1115.37 2300.89C1109.03 2288.9 1110.29 2288.06 1112.7 2286.45Z" fill="#A2A2A2"/>
<g id="Centre_10">
<circle id="Ellipse 95_10" cx="1119.78" cy="1460.78" r="31.7763" fill="white"/>
</g>
</g>
</g>
<g id="Stage2">
<g id="LA04">
<path id="LA04_2" fill-rule="evenodd" clip-rule="evenodd" d="M793.882 316.394C792.639 317.772 792.441 317.992 783.394 317.992C789.588 294.781 803.299 290.921 825.899 287.609C832.194 286.689 834.852 284.882 836.918 283.477C838.524 282.386 839.772 281.537 842.092 281.537C845.164 281.537 846.315 282.598 847.629 283.81C848.995 285.068 850.536 286.489 854.592 287.05C857.194 287.409 859.066 287.033 861.36 286.572C863.613 286.12 866.274 285.585 870.433 285.585C872.591 285.585 874.207 286.326 876.001 287.148C877.483 287.827 879.086 288.562 881.215 288.98C882.065 289.146 883.061 289.26 884.153 289.384C890.285 290.081 899.435 291.123 902.826 303.818C927.407 303.818 930.493 307.695 933.537 311.517C935.129 313.517 936.71 315.503 941.354 316.909L943.813 317.333C951.173 318.81 951.042 319.335 950.815 320.24C950.589 321.145 950.267 322.429 957.236 325.423L962.418 329.094C966.012 331.705 967.064 331.891 969.532 332.328C970.708 332.536 972.206 332.802 974.453 333.413C976.639 334.008 978.503 334.493 980.093 334.906C985.678 336.358 987.894 336.934 988.86 338.358C989.495 339.295 989.589 340.598 989.745 342.759V342.759C989.78 343.238 989.817 343.759 989.864 344.327C1003.99 344.641 1008.98 348.024 1013.85 351.332C1016.74 353.292 1019.59 355.225 1024.28 356.477V360.531C1014.01 360.531 1012.11 361.98 1010.37 363.297C1008.11 365.021 1006.14 366.519 986.141 364.255C972.592 362.72 967.241 363.576 959.731 364.778C955.931 365.386 951.578 366.083 945.33 366.602C947.418 357.649 950.015 357.408 952.316 357.194C954.579 356.985 956.555 356.801 957.477 348.375C953.942 346.676 949.288 346.411 944.54 346.14C939.39 345.846 934.128 345.546 930.06 343.403C924.191 340.315 923.717 335.49 923.319 331.432C922.92 327.365 922.597 324.07 916.99 324.07C916.858 324.07 916.49 324.123 915.927 324.206C910.501 324.996 886.986 328.422 882.579 311.92C881.648 311.92 880.679 311.94 879.692 311.961C876.656 312.024 873.452 312.091 870.674 311.585C865.706 310.677 865.965 310.505 866.264 310.305C866.536 310.124 866.842 309.92 863.321 309.125C860.64 308.518 857.215 308.872 853.301 309.277C850.466 309.57 847.374 309.89 844.122 309.89C844.52 308.392 845.61 306.598 846.704 304.798C849.45 300.276 852.22 295.717 844.122 295.717C841.651 295.717 839.542 295.706 837.733 295.697H837.733H837.732H837.732C829.93 295.657 827.706 295.646 826.105 296.639C825.467 297.035 824.928 297.59 824.175 298.366L824.175 298.366L824.174 298.366C823.135 299.437 821.688 300.928 819.011 303.001C814.822 306.242 813.981 306.607 808.446 308.631C797.149 312.77 795.052 315.096 793.882 316.394ZM1083.97 411.306C1083.93 408.264 1083.89 405.063 1078.93 403.063C1079.4 397.451 1079.65 397.244 1080.2 396.78C1080.65 396.406 1081.29 395.866 1082.41 392.202C1084.16 386.455 1083.68 382.648 1083.22 379.029C1082.95 376.912 1082.69 374.86 1082.88 372.521C1083.08 370.211 1083 368.781 1082.94 367.876C1082.9 367.12 1082.88 366.73 1083.06 366.499C1083.25 366.252 1083.67 366.185 1084.55 366.048C1085.09 365.961 1085.82 365.847 1086.77 365.643L1125.5 372.68V380.782H1131.57V386.86C1133.86 386.86 1135.86 386.848 1137.61 386.838C1145.11 386.796 1148.14 386.779 1150.79 387.776C1152.59 388.453 1154.22 389.598 1156.95 391.521C1158.29 392.467 1159.9 393.601 1161.93 394.961C1158.45 407.987 1153.92 407.492 1151.09 407.183C1150.6 407.129 1150.16 407.08 1149.78 407.111C1145.97 397.668 1127.14 399.227 1115.37 407.111C1113.97 406.737 1112.55 405.948 1111.09 405.141C1106.62 402.67 1101.87 400.042 1096.76 408.741C1095.95 410.117 1093.74 416.507 1093.1 419.266C1084.06 418.512 1084.01 415.028 1083.97 411.306ZM1040.47 366.603C1043.88 371.251 1045.14 371.081 1047.07 370.82C1048.67 370.605 1050.72 370.327 1054.83 372.657C1058.82 374.925 1058.44 375.654 1057.24 377.981C1056.35 379.68 1055.03 382.233 1054.64 386.86C1055.68 387.557 1056.62 388.138 1057.49 388.676L1057.49 388.677C1060.29 390.41 1062.37 391.698 1064.76 394.962C1052.68 401.36 1039.9 397.783 1030.87 395.256C1022.98 393.048 1017.95 391.642 1018.76 398.398C1019.17 401.781 1025.48 405.93 1029.2 408.38C1029.62 408.657 1030.01 408.911 1030.35 409.141C1040.88 403.567 1042.9 404.538 1046.09 406.076C1047.73 406.864 1049.68 407.801 1053.24 408.082C1057.25 408.399 1058.52 407.506 1059.79 406.615C1060.87 405.851 1061.95 405.087 1064.76 405.087C1068.71 405.087 1069.6 405.445 1070.69 405.886C1071.7 406.297 1072.9 406.779 1076.91 407.111C1076.44 401.484 1075.23 399.792 1074.49 398.766C1073.68 397.634 1073.45 397.311 1075.44 393.414C1076.79 390.771 1077.09 390.897 1077.32 390.996C1077.58 391.108 1077.76 391.186 1079.3 387.189C1081.36 381.853 1081.31 368.991 1073.7 365.985C1068.94 364.107 1069.01 364.346 1069.14 364.803C1069.25 365.177 1069.4 365.699 1066.96 365.32C1065.45 365.086 1065.05 365.067 1064.97 365.075C1064.95 365.038 1064.69 364.882 1062.99 364.326C1060 363.347 1061.68 362.909 1062.43 362.713C1062.6 362.666 1062.73 362.633 1062.73 362.61C1062.72 362.554 1061.98 362.554 1059.46 362.555H1059.46H1059.46L1058.69 362.555C1056.96 362.555 1055.26 362.495 1053.63 362.438H1053.63H1053.63H1053.63C1046.75 362.197 1041.26 362.004 1040.47 366.603ZM1064.97 365.075C1064.97 365.08 1064.97 365.082 1064.96 365.084C1064.96 365.085 1064.96 365.085 1064.95 365.085C1064.95 365.085 1064.95 365.085 1064.95 365.085C1064.94 365.083 1064.94 365.078 1064.97 365.075ZM961.189 416.146C952.82 417.413 936.203 419.927 931.16 401.039C937.613 400.363 941.684 399.75 944.465 399.331L944.465 399.331C947.613 398.856 949.109 398.631 950.539 398.845C951.834 399.04 953.075 399.596 955.439 400.654C957.816 401.719 961.328 403.291 967.171 405.516C969.036 406.226 970.545 406.656 971.773 407.007C976.234 408.278 976.995 408.495 977.724 417.242C975.198 417.032 973.594 416.659 972.152 416.325C969.974 415.819 968.167 415.4 964.118 415.754C963.331 415.822 962.338 415.972 961.189 416.146ZM815.781 324.07C815.781 332.668 823.81 330.396 829.45 328.801C830.37 328.54 831.227 328.298 831.975 328.124C831.098 317.61 828.751 314.185 817.805 313.944C817.45 315.467 817.105 316.491 816.804 317.387C816.208 319.163 815.781 320.432 815.781 324.07ZM1187.25 409.746C1186.65 407.97 1186.22 406.701 1186.22 403.063C1186.22 397.219 1200.01 398.785 1211.48 400.088C1215.83 400.583 1219.85 401.039 1222.66 401.039C1221.46 415.415 1211.69 413.611 1204.8 412.337C1203.1 412.023 1201.57 411.741 1200.39 411.741C1197.91 411.741 1196.81 412.015 1195.56 412.326C1194.11 412.685 1192.46 413.094 1188.25 413.189C1187.89 411.666 1187.55 410.642 1187.25 409.746Z" fill="#A2A2A2"/>
<g id="Centre_11">
<circle id="Ellipse 95_11" cx="991.744" cy="372.181" r="31.7763" fill="white"/>
</g>
</g>
<g id="LA25">
<path id="LA25_2" fill-rule="evenodd" clip-rule="evenodd" d="M1048.57 982.332L1050.9 986.286C1044.43 989.346 1040.82 988.287 1037.47 995.565C1030.67 1010.33 1033.1 1009.33 1037.15 1017.95L1050.59 1041.07C1053.9 1043.29 1053.3 1043.33 1056.16 1045.63C1060.74 1049.31 1058.58 1047.44 1063.43 1050.51C1077.85 1059.63 1070.46 1073.79 1109.3 1053.22C1109.3 1098.95 1107.6 1085.84 1125.02 1086.31C1128.13 1086.4 1154.59 1094.99 1172.85 1080.36C1173.8 1079.6 1174.51 1076.47 1183.26 1072.55C1206.8 1062.02 1193.12 1062.63 1222.85 1059.5C1234.4 1058.28 1234.23 1053.75 1243.07 1053.01C1267.21 1033.89 1285.09 1002.43 1307.68 1045.12L1348.16 1043.1C1364.33 1043.1 1376.64 1042 1389.79 1043.1C1407.55 1009.12 1395.27 1005.04 1391.36 1000.34L1407.55 964.788C1413.43 952.198 1421.96 934.998 1425.09 921.572C1412.58 929.951 1407.25 941.677 1395.27 952.597C1385.75 961.263 1367.45 954.844 1344.47 951.602C1333.48 950.055 1318.44 948.39 1307.68 945.878C1299.12 952.149 1308.04 952.055 1291.66 952.132C1284.22 952.167 1276.58 952.079 1269.1 952.067C1236.62 952.026 1243.72 912.27 1164.24 923.885C1148.69 926.156 1141.86 930.863 1130.08 934.487C1118.47 938.064 1120.93 933.663 1112.65 932.092C1102.08 930.086 1105.27 934.769 1094.86 937.505C1085.96 939.841 1085.99 938.452 1077.54 942.459C1049.77 955.627 1057.34 954.491 1053.87 965.358L1048.57 982.332Z" fill="#A2A2A2"/>
<g id="Centre_12">
<circle id="Ellipse 95_12" cx="1218.1" cy="1018.01" r="31.7763" fill="white"/>
</g>
</g>
<g id="LA36">
<path id="LA36_2" d="M1349.97 842.02C1350.3 840.637 1384.6 833.956 1384.6 832.456C1385.47 842.917 1382.84 855.857 1389.79 860.517C1393.87 866.607 1417.1 881.634 1424.9 883.717C1428.46 889.024 1430.16 885.25 1437.23 887.144C1436 901.906 1426.23 913.72 1418.42 923.005L1392.19 951.552C1384.26 957.283 1334.9 947.469 1322.2 945.498C1299.31 941.956 1308.73 947.757 1295.51 949.916C1295.27 949.952 1290.18 950.105 1289.64 950.111C1248.19 950.464 1265.08 950.116 1239.76 932.813C1196.54 903.271 1151.64 927.835 1129.54 929.677C1129.98 909.708 1136.47 892.352 1136.47 868.041C1140.24 855.187 1136.31 846.133 1122.37 836.69L1124.25 826.972C1126.3 823.209 1127.07 824.238 1135.53 821.328C1130.32 802.456 1131.46 812.237 1129.54 795.995C1135.59 795.995 1141.9 795.824 1147.92 796.024C1154.77 796.257 1165.56 797.436 1172.21 794.367C1178.14 791.672 1174.95 790.364 1184.19 787.893C1194.55 803.354 1191.65 812.864 1210.46 822.582C1216.11 820.3 1217.05 817.253 1219.87 815.685C1223.63 817.253 1222.98 817.182 1231.47 819.447C1234.59 814.793 1236.43 812.652 1241.66 808.927C1254.91 799.478 1252.86 809.192 1262.88 795.73C1271.27 784.457 1266.76 797.651 1276.93 782.453C1283.2 784.966 1285.08 784.961 1291.48 789.923C1289.15 802.831 1283.51 805.026 1296.05 812.55C1302.43 816.376 1288.21 839.512 1302.32 858.009C1306.15 863.025 1309.22 864.279 1316.12 868.982C1318 858.95 1317.68 858.621 1321.13 851.425C1332.48 851.678 1345.92 860.321 1350.91 851.425C1352.25 849.325 1352.17 846.723 1349.97 842.02Z" fill="#A2A2A2"/>
<g id="Centre_13">
<circle id="Ellipse 95_13" cx="1275.78" cy="898.876" r="31.7763" fill="white"/>
</g>
</g>
<g id="LA35">
<path id="LA35_2" d="M1366.9 831.673C1356.87 837.943 1350.65 838.391 1346.14 840.556C1346.4 843.75 1346.77 847.174 1347.15 848.603C1338.8 854.202 1331.34 849.317 1319.82 846.634C1316.1 852.2 1314.48 853.971 1313.75 862.838L1308.44 858.013C1298.97 848.864 1299.27 847.882 1299.41 834.508C1299.66 810.862 1308.55 815.534 1291.48 804.096C1291.68 794.941 1293.51 796.047 1293.51 785.868C1289.33 783.662 1280.37 779.304 1275.05 778.063C1274.6 777.869 1270.9 776.713 1270.48 776.502C1264.73 773.613 1264.35 772.85 1262.5 770.539C1260.66 768.227 1259.86 765.911 1257.37 757.139C1253.9 744.859 1252.83 742.483 1256.73 742.453C1264 742.406 1258.24 744.783 1264.93 745.766C1276.38 747.448 1271.36 741.765 1279.94 748.919C1284.17 752.438 1284.59 756.603 1289.61 753.738C1299.75 747.955 1290.86 740.81 1306.05 741.123C1314.51 741.294 1312.48 743.124 1315.77 737.258C1324.96 731.104 1325.05 735.152 1333.49 730.686C1340.07 727.203 1340.31 722.637 1342.09 714.977L1351.86 717.869C1350.29 724.453 1348.97 727.236 1348.09 730.686C1354.04 734.669 1355.52 732.604 1360.22 734.171C1360.22 737.306 1360.03 735.487 1360.22 741.312C1360.22 750.16 1357.69 748.055 1355.3 755.804C1352.26 765.66 1350.29 769.285 1356.87 783.706C1362.23 797.78 1361.47 798.585 1374.88 805.725C1379.49 808.185 1382.58 805.137 1382.58 830.431C1378.22 830.431 1373.8 828.992 1366.9 831.673Z" fill="#A2A2A2"/>
<g id="Centre_14">
<circle id="Ellipse 95_14" cx="1321.78" cy="785.776" r="31.7763" fill="white"/>
</g>
</g>
<g id="LA39">
<path id="LA39_2" d="M1434.76 788.557C1420.51 782.452 1414.24 785.868 1407.97 788.557C1403.9 790.304 1386.28 812.291 1368.86 797.559C1359.62 789.745 1353.61 772.916 1356.26 761.563C1367.15 744.388 1362.33 736.251 1362.33 729.156H1352.21C1354.49 724.396 1353.98 721.766 1356.15 717.177C1351.59 714.627 1347.44 713.619 1342.34 712.705C1329.77 709.646 1337.97 706.863 1325.9 698.773C1337.98 680.716 1323.1 689.302 1334.61 684.636C1342.45 681.465 1348.99 682.74 1350.19 668.396C1343.19 666.525 1343.96 667.295 1342.09 660.294C1346.51 654.257 1347.53 656.493 1353.69 651.645C1357.54 648.615 1359.85 645.773 1362.33 642.061C1396.75 665.124 1389.91 663.83 1384.6 686.623C1390.13 684.387 1386.28 683.493 1391.32 679.168C1400.85 671.003 1404.39 682.5 1412.02 687.541C1429.02 698.779 1427.65 694.842 1438.69 697.314C1446.66 699.102 1443.76 700.785 1451.4 702.827V696.749C1460.47 696.749 1479.48 695.731 1487.36 697.231C1499.4 699.526 1500.51 705.339 1510.64 708.363C1519.06 710.881 1516.64 708.645 1523.52 713.705C1527.17 716.376 1529.21 718.483 1532.54 720.889L1540.28 727.314C1547.76 735.116 1545.92 741.382 1538.44 753.461C1526.79 768.722 1521.55 779.671 1502.34 779.943C1494.93 780.055 1496.1 785.244 1489.8 783.844L1481.28 778.148C1466.25 770.435 1460.96 774.555 1453.43 779.79C1449.07 782.82 1449.17 781.69 1447.79 787.468C1442.74 794.746 1442.2 789.663 1434.76 788.557Z" fill="#74BCFF"/>
<g id="Centre_15">
<circle id="Ellipse 95_15" cx="1408.78" cy="746.776" r="31.7763" fill="white"/>
</g>
</g>
<g id="LA28">
<path id="LA28_2" fill-rule="evenodd" clip-rule="evenodd" d="M1147.76 1160.57C1146.15 1158.04 1147.83 1162.15 1145.79 1156.47C1145.47 1155.56 1144.46 1152.05 1144.39 1151.75C1139.6 1129.03 1149.18 1131.96 1151.81 1122.09C1148.54 1117.2 1134.51 1102.74 1131.57 1091.71H1105.25C1105.25 1078.38 1104.07 1071.55 1103.23 1061.33C1083.34 1068.54 1078.16 1074.96 1064.14 1055.87C1045.84 1046.15 1043.1 1041.38 1031.85 1017.24C1028.19 1009.36 1026.36 1005.47 1032.77 992.86C1038.89 980.822 1051.5 989.085 1044.22 972.309C1057.82 953.987 1046.9 956.959 1067.63 942.673C1082.16 932.665 1091.8 934.836 1098 932.542C1104.12 930.276 1098.55 929.982 1107.27 927.652C1105.27 920.139 1105.23 925.034 1103.23 917.521C1108.77 913.814 1113.61 906.836 1115.37 899.293C1108.13 888.479 1100.18 889.938 1084.16 888.209C1078.05 887.55 1079.15 890.062 1068.83 891.339C1057.97 892.68 1059.86 891.192 1048.57 891.192C1048.19 874.247 1035.33 867.157 1027.15 861.991C1014.45 853.972 1018.73 838.992 997.964 838.533C999.157 842.96 1000.35 845.155 1001.09 847.947C1003.99 858.873 1000.16 854.643 996.046 860.903L994.552 865.816C993.623 871.399 997.123 866.427 991.517 874.459C966.1 910.902 945.189 889.297 931.348 915.685C925.531 926.776 924.119 939.743 915.461 948.398C910.625 953.228 913.361 951.763 904.849 951.958C901.532 939.531 891.367 934.783 878.532 937.778C878.532 921.622 882.579 931.653 882.579 915.497C873.462 917.933 862.486 931.865 858.292 939.802C871.609 959.706 856.851 946.18 865.703 958.553C867.427 960.959 868.091 960.612 870.433 964.107C868.456 971.515 868.297 968.355 864.362 974.233C895.491 990.719 898.055 1005.9 906.537 1017.11C923.607 1039.66 910.89 1018.93 925.06 1051.23C928.725 1059.59 930.437 1067.97 935.254 1075.47C939.972 1082.81 941.819 1080.07 944.766 1090.25C950.265 1109.26 949.018 1095.16 954.477 1106.87C958.706 1115.93 952.977 1109.77 960.965 1118.6C967.3 1125.61 977.17 1141.77 976.471 1151.38C975.912 1159.08 974.712 1160.91 977.635 1166.69C982.594 1176.49 1023.81 1206.09 1035.24 1212.4C1046.36 1218.54 1080.36 1231.75 1088.92 1243.76C1095.8 1253.4 1088.64 1246.8 1106.93 1260.32C1115.81 1266.88 1121.42 1262.74 1124.58 1256.88L1127.55 1249.59C1133.53 1237.87 1130.61 1246.36 1129.54 1233.49C1137.94 1229.05 1140.68 1224.85 1145.74 1217.29C1139.83 1212.95 1137.13 1205.75 1133.59 1199.06L1140.01 1191.27C1130.18 1173.02 1146.46 1176.21 1147.76 1160.57Z" fill="#A2A2A2"/>
<g id="Centre_16">
<circle id="Ellipse 95_16" cx="997.776" cy="1042.78" r="31.7763" fill="white"/>
</g>
</g>
<g id="LA23">
<path id="LA23_2" fill-rule="evenodd" clip-rule="evenodd" d="M1126.51 558.623C1125.06 561.088 1123.88 563.074 1119.42 563.074C1117.24 563.074 1109.94 557.903 1123.17 551.166L1127.52 556.997C1127.15 557.551 1126.82 558.098 1126.51 558.623ZM1182.17 773.72C1188.05 775.289 1188.1 775.526 1188.86 779.038C1189.12 780.238 1189.46 781.82 1190.14 783.969C1191.97 789.736 1193.13 794.055 1194.03 797.426C1197.06 808.736 1197.23 809.379 1210.51 818.276C1214 815.941 1216.15 814.294 1217.6 813.185C1219.29 811.892 1220.02 811.332 1220.8 811.266C1221.39 811.216 1222.01 811.455 1223.09 811.878C1224.51 812.428 1226.74 813.291 1230.76 814.228C1233.29 810.433 1235.45 807.844 1239.56 804.809C1244.62 801.077 1246.56 800.84 1248.61 800.59C1250 800.42 1251.45 800.244 1253.96 798.954C1259.15 796.288 1259.07 795.358 1258.96 794.133C1258.87 793.063 1258.75 791.768 1262.11 788.893C1265.88 785.676 1267.89 785.843 1269.24 785.955C1270.9 786.093 1271.57 786.148 1273.26 779.791C1259.78 776.646 1258.73 772.993 1255.09 760.354L1255.09 760.352C1254.74 759.131 1254.37 757.827 1253.96 756.432C1250.19 747.34 1247.46 736.304 1252.93 737.353C1259.9 738.69 1260.21 739.196 1260.65 739.904C1260.97 740.414 1261.36 741.03 1264.34 742.136C1267.26 743.217 1268.88 742.512 1270.54 741.79C1272.19 741.072 1273.88 740.336 1276.93 741.313C1280.73 742.535 1282.93 745.004 1284.56 746.838C1286.88 749.435 1288.06 750.759 1291.03 745.459C1294.66 738.998 1302.3 736.994 1312.35 736.994C1314.32 729.566 1321.86 728.312 1328.29 727.243C1337.18 725.762 1343.95 724.636 1330.87 707.976C1329.86 706.686 1329.14 705.704 1328.55 704.906C1326.63 702.301 1326.17 701.67 1321.85 698.774C1322.76 695.368 1323.53 694.164 1324.15 693.199C1325.28 691.446 1325.9 690.482 1325.9 678.523C1333.78 678.523 1335.3 677.799 1337.56 676.729C1338.93 676.076 1340.58 675.294 1344.11 674.469C1342.97 670.184 1341.72 668.876 1340.43 667.535C1338.96 665.998 1337.45 664.418 1336.02 658.265C1336.82 657.731 1337.6 657.225 1338.38 656.723C1340.75 655.195 1343.06 653.704 1345.51 651.57C1347.37 649.959 1348.36 648.812 1349.13 647.927C1350.68 646.136 1351.3 645.414 1356.26 644.092V635.99C1348.63 634.212 1347.27 634.441 1338.2 635.959L1338.12 635.972C1333.62 636.728 1331.51 637.554 1329.7 638.262C1327.12 639.268 1325.15 640.038 1317.8 640.038V633.96C1318.94 633.935 1319.93 633.918 1320.8 633.903C1324.85 633.834 1326.13 633.812 1326.61 633.183C1326.82 632.893 1326.87 632.473 1326.94 631.859C1327.11 630.213 1327.44 627.172 1331.65 621.493C1333.97 618.37 1334.14 619.488 1334.21 620.025C1334.23 620.145 1334.25 620.236 1334.28 620.243C1334.38 620.266 1334.66 619.481 1335.83 616.253L1336.02 615.733L1312.7 607.319C1309.92 606.273 1308.67 605.588 1308 605.22C1307.6 604.997 1307.41 604.892 1307.22 604.894C1307.04 604.895 1306.87 604.985 1306.54 605.156C1305.77 605.559 1304.14 606.414 1299.58 607.631C1296.73 602.247 1295.66 601.57 1294.38 600.758C1293.42 600.15 1292.34 599.466 1290.31 596.676C1289.05 594.952 1288.13 593.767 1287.46 592.902C1286.4 591.536 1285.96 590.965 1285.76 590.318C1285.62 589.852 1285.61 589.348 1285.58 588.48C1285.56 587.754 1285.53 586.774 1285.41 585.35C1277.04 585.538 1263.84 589.898 1256.59 592.963C1256.26 593.099 1255.74 593.353 1255.04 593.691L1255.04 593.691C1247.37 597.412 1218.9 611.226 1212.53 587.38C1196.98 587.38 1188.87 589.086 1183.06 590.307C1179.6 591.035 1176.95 591.591 1174.04 591.51C1164.97 591.255 1162.41 585.72 1159.71 579.88C1155.32 570.369 1150.56 560.049 1116.64 570.417C1115.13 570.879 1113.68 571.309 1112.29 571.722C1101.59 574.897 1094.21 577.088 1087.03 585.35C1087.11 585.703 1087.19 586.038 1087.26 586.358C1088.43 591.384 1088.69 592.532 1091.64 596.94C1092.35 598 1093.1 598.952 1093.83 599.888L1093.83 599.889C1095.75 602.344 1097.59 604.691 1098.47 608.566C1100.93 619.369 1092.61 625.058 1082.98 625.858C1081.9 621.789 1080.01 619.015 1078.35 616.568C1075.16 611.86 1072.78 608.358 1078.47 599.164C1085.07 588.491 1083.86 584.891 1081.45 577.724L1081.45 577.724C1080.66 575.373 1079.75 572.639 1078.93 569.146H1074.89C1073.1 575.825 1070.32 577.781 1067.29 579.919C1063 582.939 1058.19 586.323 1054.94 603.883C1054.9 604.097 1054.83 604.537 1054.74 605.037L1054.74 605.037C1054.59 605.912 1054.41 606.969 1054.33 607.313C1053.55 610.647 1053.34 611.038 1053.16 611.375C1053.08 611.515 1053.01 611.645 1052.91 611.973C1052.1 614.531 1051.73 614.184 1051.49 613.962C1051.2 613.681 1051.11 613.597 1050.59 619.787C1052.37 619.826 1053.59 619.82 1054.48 619.815C1055.75 619.809 1056.33 619.806 1056.86 619.949C1057.29 620.066 1057.7 620.279 1058.44 620.665C1058.98 620.945 1059.69 621.318 1060.71 621.81C1060.71 632.181 1061.85 632.931 1063.95 634.325C1065.26 635.19 1066.93 636.303 1068.95 640.114C1072.01 645.905 1070.97 648.038 1069.44 651.173C1068.41 653.284 1067.16 655.85 1066.79 660.295C1071.22 663.262 1073.49 665.083 1074.99 666.291C1075.98 667.081 1076.63 667.609 1077.36 668.025C1078.82 668.865 1080.54 669.246 1085.74 670.395L1085.78 670.403C1093.26 672.053 1098.94 671.572 1103.87 671.155C1114.4 670.263 1121.55 669.658 1135.61 690.672C1142.09 690.528 1148.76 689.599 1154.96 688.736C1174.77 685.977 1189.69 683.899 1177.5 710.324C1172.42 721.32 1174.56 729.639 1179.23 740.206C1180.18 742.35 1181.33 744.366 1182.4 746.233L1182.4 746.233C1184.08 749.147 1185.54 751.7 1185.68 753.815C1186 758.806 1184.4 760.021 1182.15 761.718C1180.93 762.644 1179.52 763.713 1178.12 765.618L1182.17 773.72ZM1321.1 600.368L1321.1 600.368C1329.59 602.588 1333.2 603.531 1331.21 588.509C1331.1 587.696 1331.06 587.01 1331.02 586.432C1330.95 585.405 1330.91 584.717 1330.56 584.257C1329.86 583.326 1327.92 583.326 1322.06 583.326L1321.85 583.326L1317.8 599.529C1318.97 599.81 1320.07 600.098 1321.1 600.368Z" fill="#A2A2A2"/>
<g id="Centre_17">
<circle id="Ellipse 95_17" cx="1234.4" cy="684.436" r="31.7763" fill="white"/>
</g>
</g>
<g id="LA34">
<path id="LA34_2" d="M1134.88 861.544C1134.98 861.255 1134.28 865.219 1133.59 868.91C1133.59 881.248 1131.02 887.579 1128.3 898.052C1125.07 910.46 1125.5 914.908 1125.5 929.676C1119.02 927.945 1114.77 921.198 1109.3 917.52C1111.78 913.802 1113.84 910.848 1116.68 906.683C1120.11 901.652 1121.27 901.023 1121.44 893.215C1111.68 890.938 1112.46 889.756 1104.26 885.919C1098.22 883.088 1086.89 883.434 1081.14 883.609L1081.02 883.613C1073.01 883.854 1074.1 889.167 1052.62 889.167C1049.71 883.107 1051.32 880.465 1047.64 875.923L1039.83 865.509C1034.19 856.99 1038.49 863.456 1028.98 858.131C1016.19 850.959 1024.12 840.839 998.099 834.344C989.341 832.161 989.849 830.733 986.93 828.225C982.93 824.789 983.168 822.895 981.287 819.76L964.671 825.09C955.892 826.03 956.436 817.675 941.536 813.975C927.307 810.433 924.749 802.66 914.967 800.048V793.97C922.925 793.794 919.719 794.523 925.09 791.946C919.596 768.341 931.854 785.527 941.072 771.477L957.477 747.384C953.824 733.693 949.765 747.284 953.048 726.791C954.936 715 952.118 714.406 952.46 705.598L951.736 694.42L951.734 694.411C950.784 691.224 950.156 689.119 949.971 683.688C949.695 674.651 943.713 675.48 941.283 666.366C949.295 654.399 954.877 664.52 955.265 647.016C954.189 642.397 951.86 641.455 951.407 635.989C959.283 638.09 960.435 642.316 965.611 648.27C965.611 638.597 964.2 641.767 963.553 633.96C965.941 632.7 969.724 631.259 971.694 629.959C981.717 623.328 974.535 616.12 991.888 615.732C991.17 607.077 991.617 593.945 998.14 587.555C1002.68 583.102 1006.38 581.625 1008.09 575.223C1016.55 575.929 1017.5 576.883 1018.2 585.349H1022.26C1022.39 579.336 1023.05 574.382 1026.66 571.605C1033.22 566.557 1036.25 580.271 1051.26 567.792C1061.71 559.108 1064.54 566.051 1072.29 554.395L1080.61 546.217C1085.76 543.975 1090.59 543.505 1093.57 548.318C1099.97 558.679 1083.58 560.132 1079.71 561.82L1058.29 582.925C1051.34 593.315 1055.23 594.086 1052.02 605C1049.6 613.184 1045.33 609.631 1042.5 621.81C1050.49 621.81 1050.71 622.445 1056.67 623.834C1057.49 633.724 1059.59 633.554 1063.17 637.684C1074.23 650.398 1055.38 652.864 1067.04 666.013C1080.99 681.746 1097.54 670.167 1114.88 674.962C1119.58 676.257 1122.27 680.199 1126.07 684.017C1130.86 688.836 1131.82 688.118 1133.59 694.725C1150.06 694.725 1160.23 692.702 1178.12 692.702C1176.91 707.334 1167.55 706.063 1170.16 726.891C1171.8 739.976 1179.62 745.907 1182.17 755.486C1165.35 780.626 1185.79 766.859 1186.22 785.869C1171.26 785.869 1180.03 786.639 1172.28 789.94L1125.5 793.97C1125.5 801.687 1126.45 807.345 1129.17 813.792C1133.34 823.659 1128.25 816.016 1123.56 822.418L1119.42 838.533C1130.85 846.193 1134.77 861.861 1134.88 861.544Z" fill="#A2A2A2"/>
<g id="Centre_18">
<circle id="Ellipse 95_18" cx="1062.6" cy="759.05" r="31.7763" fill="white"/>
</g>
</g>
<g id="LA17">
<path id="LA17_2" fill-rule="evenodd" clip-rule="evenodd" d="M888.656 818.275C888.656 825.259 890.15 826.118 890.679 832.455C870.144 846.216 890.661 843.245 876.909 854.995C868.056 862.555 870.233 853.43 871.638 875.993C872.397 888.137 867.909 882.607 870.374 887.778C871.815 890.797 876.403 891.632 880.556 895.245C887.891 890.332 889.891 892.55 890.679 883.089H894.726C895.679 894.527 902.055 899.751 884.603 911.448C885.314 919.968 886.797 916.414 887.026 920.226C887.303 924.898 884.797 924.304 884.062 928.969C882.891 936.412 883.291 932.535 890.267 933.918C894.408 934.735 898.761 935.412 902.826 935.753C903.396 942.631 904.367 943.167 906.873 947.903C924.543 943.184 912.89 925.722 932.56 904.747C948.954 887.266 971.477 901.522 988.811 865.832L997.964 850.682C986.423 828.854 987.676 838.227 979.747 826.377C974.759 827.713 961.012 837.656 947.836 823.871C934.784 810.221 927.513 819.817 916.99 804.096C904.908 812.192 888.656 812.345 888.656 818.275Z" fill="#DE7676"/>
<g id="Centre_19">
<circle id="Ellipse 95_19" cx="951.776" cy="861.776" r="31.7763" fill="white"/>
</g>
</g>
</g>
<g id="Stage1">
<g id="LA31">
<path id="LA31_2" fill-rule="evenodd" clip-rule="evenodd" d="M28.3403 40.5087C40.4929 37.6728 69.6861 32.7011 82.9916 32.4069C83.9681 44.0977 91.5914 43.1269 101.479 46.3217C110.985 49.3929 116.779 52.1818 126.761 55.4531C188.453 75.6692 157.307 70.8917 232.793 70.8917V58.7361C294.785 58.7361 272.227 55.606 295.015 75.4691C304.961 84.1474 314.926 82.4353 319.479 107.705C321.22 117.39 318.855 114.372 325.725 119.679C332.008 124.533 341.19 131.581 350.195 133.682C364.26 112.665 366.965 109.376 382.588 109.376C395.87 109.376 406.405 123.479 411.588 133.017C418.864 146.39 422.746 153.656 432.052 165.206C452.398 190.47 428.858 191.988 468.415 207.815C474.421 210.216 482.656 212.51 489.873 212.669C482.609 197.525 483.797 184.922 483.797 168.112C483.797 162.953 490.832 157.375 494.815 154.798C504.15 148.767 506.285 152.368 504.044 141.783C512.061 141.783 519.961 142.872 526.49 139.936C538.231 134.658 539.46 120.997 544.531 113.424C556.489 117.755 544.413 119.502 556.671 119.502C563.265 119.502 564.477 113.754 566.795 109.376C576.924 116.16 571.171 112.106 584.924 113.513C595.488 114.595 593.835 119.502 601.205 119.502C606.241 119.502 608.817 114.436 613.352 111.4C620.052 113.189 616.099 112.353 621.246 115.654C641.187 128.428 631.087 131.652 649.792 131.652C657.104 131.652 655.863 126.545 655.863 119.502C663.368 121.508 658.48 121.544 665.986 123.55C666.368 106.182 668.198 123.832 672.056 109.376C658.939 109.376 659.615 107.611 649.792 105.323V97.2208C662.539 97.2208 662.198 101.275 668.009 101.275C675.744 101.275 664.351 97.2208 700.397 97.2208L702.667 89.1956C709.108 94.0201 704.696 91.3254 708.49 99.2448C717.39 98.5034 720.796 96.9619 724.69 91.1431C731.096 93.5377 727.59 86.748 728.737 97.2208C737.372 96.503 738.319 93.8907 746.954 93.1729C748.195 98.4976 748.795 99.1212 751.001 103.299C752.389 103.181 757.254 102.275 757.612 102.31C763.671 102.881 768.042 111.024 769.224 115.448C785.706 115.083 784.059 109.629 793.511 103.299C802.917 105.487 802.435 106.876 807.299 113.807L808.97 116.19C812.793 120.973 829.951 134.558 829.951 137.729C829.951 148.914 825.91 151.274 823.875 160.011C827.446 161.723 830.428 162.347 833.998 164.059C833.628 165.453 824.587 177.079 837.092 187.293C840.204 189.829 842.716 188.346 845.163 195.418L847.086 207.68C847.198 208.127 847.498 208.839 847.598 209.192C850.01 217.664 848.504 212.887 854.439 216.523C861.015 220.553 854.215 213.816 861.274 221.836C866.18 227.402 868.668 231.314 872.462 236.974C886.709 227.425 888.656 207.727 888.656 192.418C888.656 187.764 885.462 185.01 883.62 181.251L871.321 140.577C871.062 132.787 871.962 137.112 868.58 129.598C856.427 102.575 851.91 89.8369 861.515 63.9902C863.633 58.289 863.445 58.6537 866.433 54.7353C869.097 51.2463 867.456 54.0116 869.25 51.4757C877.421 39.9438 867.191 42.7033 878.115 38.067C887.379 34.1426 882.72 40.9794 897.108 28.712C901.902 24.6288 899.096 24.9524 906.873 24.3052C907.096 14.3148 912.102 10.3316 919.019 0H0C7.26449 9.91977 21.6464 11.7555 28.3403 40.5087V40.5087Z" fill="#A2A2A2"/>
<g id="Centre_20">
<circle id="Ellipse 95_20" cx="490.755" cy="150.216" r="31.7763" fill="white"/>
</g>
</g>
<g id="LA24">
<path id="LA24_2" fill-rule="evenodd" clip-rule="evenodd" d="M97.1676 166.09C86.8091 163.672 91.3972 166.09 78.9446 166.09V170.138C89.7031 173.015 86.0738 177.492 92.8795 182.523L109.308 192.419C115.591 190.954 115.173 189.83 121.455 188.365C127.108 212.635 145.937 197.12 145.672 230.998C145.543 247.813 140.702 238.976 174.983 264.435C195.412 279.608 186.824 280.232 192.306 291.664C197.165 291.258 197.447 293.547 203.694 284.827C210.411 275.46 205.029 274.254 203.635 272.224C203.4 271.877 202.964 271.46 202.711 271.124C199.512 266.965 196.229 264.346 194.329 257.233C184.477 257.233 181.071 261.31 177.636 255.68C172.777 247.707 180.547 250.32 175.812 239.323C166.33 217.295 163.83 231.981 162.83 210.67C162.701 207.934 161.36 197.585 157.095 196.049C146.09 192.101 159.907 198.238 151.589 197.026C148.007 196.502 151.595 199.215 149.013 195.379C146.537 191.69 148.566 193.908 147.513 190.884C143.996 180.823 144.737 185.376 139.731 176.157C135.014 167.467 135.343 169.297 127.531 164.06V149.886C114.591 143.032 101.703 113.29 87.0444 109.378C87.0444 92.0682 87.9385 92.5389 82.1563 79.642C77.2917 68.7809 80.0564 77.9299 81.5798 67.7277C82.8033 59.5142 80.9387 63.2444 78.9446 54.6896C86.415 56.6842 91.3443 63.1915 95.1383 68.8633C113.367 56.6548 103.944 74.5056 123.479 74.941C122.179 90.5679 118.685 85.055 133.261 113.767C136.349 119.839 139.619 124.028 143.025 130.323C162.695 166.702 176.336 161.495 178.965 163.019C185.394 166.731 179.983 161.795 180.589 171.944C181.353 184.712 186.43 180.322 192.853 185.794C198.729 190.801 193.412 189.642 199.588 193.231C202.941 195.184 205.847 194.225 210.523 196.467C215.917 216.813 203.1 199.615 208.5 222.802C214.664 222.661 215.882 221.884 220.646 220.772C222.923 229.304 228.258 232.692 238.863 232.928C238.863 258.751 239.699 240.688 251.551 254.668C269.951 276.378 263.58 256.033 276.662 280.179C280.874 287.957 283.585 292.623 289.468 297.742C294.291 295.994 293.056 293.747 297.491 291.246C310.585 283.862 310.067 304.69 323.884 305.843C323.884 296.93 320.72 292.67 322.378 286.239C324.784 276.92 324.625 288.604 329.066 268.5C332.831 251.479 348.937 255.443 359.909 249.486C351.131 238.827 341.853 243.163 338.054 226.85C358.889 195.72 322.843 208.534 330.119 154.099C331.537 143.497 337.384 140.732 342.101 133.683C334.796 131.977 320.29 122.11 317.461 115.803C304.985 88.0085 318.702 99.711 284.268 72.0463C267.845 58.8552 277.333 62.7914 236.84 62.7914V74.941C216.582 74.941 196.318 74.8587 176.059 74.994C152.678 75.1411 127.714 61.3734 104.961 52.9657C64.5215 38.0214 84.0915 37.5389 61.3687 41.0808C53.4454 42.3164 42.4104 44.5639 32.3872 44.5639C32.7166 59.2788 36.2871 53.6894 38.6164 59.5024C40.534 64.3035 35.8106 60.7968 42.3751 70.8931L52.9866 87.6555C53.9513 90.1796 52.8513 90.0678 54.5101 95.3278C66.7685 134.283 66.8979 107.401 87.5032 133.218C101.303 150.504 101.215 140.196 101.215 155.958C95.403 158.306 97.1676 154.611 97.1676 166.09Z" fill="#A2A2A2"/>
<g id="Centre_21">
<circle id="Ellipse 95_21" cx="278.195" cy="174.042" r="31.7763" fill="white"/>
</g>
</g>
<g id="LA22">
<path id="LA22_2" fill-rule="evenodd" clip-rule="evenodd" d="M346.148 212.67C346.148 231.503 342.531 217.412 342.866 228.615C343.348 244.018 360.591 234.966 364.365 249.131C354.966 263.181 344.078 251.425 335.254 262.534C330.772 268.182 334.313 268.311 326.102 286.074C324.384 289.792 325.167 285.35 324.937 289.887C324.355 301.395 329.278 295.658 334.466 297.488C342.219 300.218 340.078 299.865 340.078 309.891C344.69 308.814 344.731 308.32 350.195 307.867C349.989 317.363 349.96 314.186 345.96 319.828C342.36 324.894 344.56 319.458 342.825 324.794C341.678 328.307 342.101 330.442 342.101 334.196C369.136 327.895 352.989 324.718 358.366 312.127C367.901 289.787 382.094 317.951 396.97 319.805C403.911 320.67 411.058 319.999 415.37 321.652C424.569 325.176 419.581 327.595 429.146 330.148V322.046C446.086 322.046 446.745 324.753 447.363 332.172C453.527 332.037 454.745 331.26 459.51 330.148V311.921C459.51 306.672 454.139 314.121 457.486 299.765C473.256 299.765 463.809 302.825 475.703 303.819C475.703 234.916 488.667 233.204 489.873 218.748C484.944 216.383 467.774 215.182 449.933 206.051C435.528 198.679 439.493 182.222 432.416 170.914C427.822 163.56 420.77 161.365 409.946 140.737C401.241 124.151 397.135 115.449 378.536 115.449C362.589 115.449 365.095 127.499 358.771 134.153C352.301 140.972 338.554 135.312 334.537 150.421C325.008 186.276 346.148 194.072 346.148 212.67Z" fill="#A2A2A2"/>
<g id="Centre_22">
<circle id="Ellipse 95_22" cx="426.799" cy="256.81" r="31.7763" fill="white"/>
</g>
</g>
<g id="LA20">
<path id="LA20_2" fill-rule="evenodd" clip-rule="evenodd" d="M293.521 305.844C293.521 327.948 305.279 318.811 305.661 336.227C299.744 337.639 302.75 335.962 299.591 340.274C301.191 346.27 300.414 343.558 303.638 348.376L295.62 350.647C295.42 380.165 327.578 383.46 336.366 392.597C344.448 400.999 337.696 403.017 368.124 411.454C380.53 414.896 381.553 411.772 391.188 420.786C407.952 436.472 405.505 431.247 423.658 438.931L461.533 451.675C476.409 429.446 459.527 443.238 465.58 417.244C452.522 416.155 436.469 399.011 431.169 399.011C424.134 399.011 428.322 402.605 419.023 405.088L416.811 403.253C402.176 388.538 419.023 384.366 419.023 360.532C419.023 354.136 403.005 341.587 423.069 336.227C421.217 313.934 400.947 333.908 381.035 315.493C375.771 310.621 374.077 309.633 368.418 305.844C355.442 320.347 362.342 311.633 362.342 326.095C362.342 329.278 338.054 351.771 338.054 326.095C338.054 318.687 343.531 321.723 346.148 311.921C336.296 314.551 336.025 321.376 336.025 303.82C325.984 307.968 337.549 301.872 328.849 305.273C323.184 307.491 327.908 307.738 319.831 309.891C308.955 302.602 312.314 298.401 299.591 291.664C298.109 294.465 293.521 302.49 293.521 305.844V305.844Z" fill="#DE7676"/>
<g id="Centre_23">
<circle id="Ellipse 95_23" cx="374.776" cy="365.776" r="31.7763" fill="white"/>
</g>
</g>
<g id="LA19">
<path id="LA19_2" fill-rule="evenodd" clip-rule="evenodd" d="M461.533 322.044C461.533 329.364 463.054 331.31 470.578 332.878C467.443 342.596 459.523 343.699 462.345 348.24C468.604 351.688 466.874 344.326 477.727 344.326C487.026 344.326 484.132 353.592 481.774 358.499C501.379 354.345 476.997 375.179 497.967 380.781C496.02 388.082 497.785 386.199 489.873 386.858C490.573 395.272 494.938 399.143 502.02 401.038V405.086C495.479 406.833 492.285 411.358 487.85 415.211L480.062 408.792L472.303 415.747C458.533 426.696 473.35 431.839 470.809 442.77C468.886 451.025 466.062 446.342 463.556 455.72C474.197 456.609 472.186 462.357 485.244 462.692C501.508 463.11 499.573 469.9 508.09 469.9L544.53 451.672C560.712 455.997 563.953 457.65 578.094 468.723C586.859 475.583 594.894 489.41 605.258 492.181C609.858 472.406 596.323 487.221 617.399 455.72L633.604 457.028C640.021 457.375 644.577 456.714 647.763 455.72C645.769 448.236 642.375 447.165 636.481 442.711C630.904 438.493 628.372 436.307 624.825 431.006C643.009 427.244 635.651 414.682 625.969 412.693C620.093 411.481 620.552 413.429 613.352 417.241C610.17 412.481 608.628 411.881 604.764 407.604C601.511 403.991 599.641 400.697 597.158 396.984C584.935 405.174 586.829 398.161 573.765 401.932C566.783 403.95 566.742 407.963 552.624 409.14C547.707 390.706 528.931 396.99 524.284 394.96C518.455 392.407 523.755 394.413 517.496 385.552C501.291 362.6 513.931 380.657 506.679 363.965C504.138 358.129 502.479 358.376 498.573 353.845C490.073 343.996 478.103 324.798 477.727 307.865C461.574 307.506 473.556 302.958 459.509 301.787C459.509 304.975 458.167 304.035 461.533 309.051C463.687 312.261 461.533 310.483 461.533 322.044Z" fill="#A2A2A2"/>
<g id="Centre_24">
<circle id="Ellipse 95_24" cx="553.776" cy="429.776" r="31.7763" fill="white"/>
</g>
</g>
<g id="LA16">
<path id="LA16_2" fill-rule="evenodd" clip-rule="evenodd" d="M647.763 364.578C638.963 366.931 641.51 366.396 639.64 374.68C636.934 386.665 640.122 379.051 632.31 385.735C621.628 394.878 631.381 389.571 628.069 396.102C625.917 400.35 620.64 400.597 615.376 401.038C613.488 393.96 614.605 396.484 609.305 392.937C605.611 394.766 606.77 394.496 601.206 394.961C603.023 401.756 609.646 407.646 613.352 413.188C622.458 409.893 616.676 405.457 626.799 409.605C653.816 420.678 660.957 413.188 686.227 413.188C687.185 401.638 689.315 410.558 690.273 399.008H698.373C699.156 389.606 696.203 395.467 702.42 390.907C707.067 400.597 700.203 400.303 710.52 403.062C712.414 394.908 714.002 394.925 714.308 385.023C714.32 384.623 714.349 380.546 714.355 380.434L714.937 376.974C714.937 376.968 718.131 374.715 710.52 372.679C724.637 353.393 714.408 364.56 720.402 354.211C725.519 345.385 732.784 346.079 732.784 332.171C732.784 327.299 729.508 326.216 726.714 322.045C721.225 325.722 722.972 327.511 717.179 327.193C706.344 326.593 716.132 322.045 698.373 322.045C691.762 322.045 696.22 323.451 690.215 326.034C678.674 331 650.728 328.287 646.469 343.055C644.469 349.992 645.587 360.035 647.763 364.578V364.578Z" fill="#A2A2A2"/>
<g id="Centre_25">
<circle id="Ellipse 95_25" cx="679.776" cy="365.776" r="31.7763" fill="white"/>
</g>
</g>
<g id="LA32">
<path id="LA32_2" d="M803.135 584.077C804.146 588.089 799.137 586.72 797.558 585.347C782.018 571.833 766.947 579.24 752.071 570.103C751.701 569.874 751.271 569.473 750.907 569.244L739.431 562.495C734.684 557.789 736.837 555.882 731.084 550.593C727.584 547.375 724.137 545.692 719.89 541.397C710.479 531.883 716.561 537.608 716.031 528.606C715.167 513.92 712.931 531.96 712.543 514.462H708.49C707.155 530.571 699.379 528.082 688.603 526.005C688.073 525.905 686.609 525.776 686.073 525.676C682.738 525.035 681.632 524.405 677.903 522.928C666.362 518.351 667.874 522.505 655.863 514.462C660.209 507.966 668.827 501.594 674.174 496.322C679.868 490.704 675.644 487.144 682.644 480.49C686.02 477.277 685.638 478.73 689.656 475.359C695.408 470.535 698.391 464.604 707.508 463.404C712.737 462.721 710.226 463.951 715.155 465.028C722.49 466.622 735.837 468.917 741.983 467.104C750.007 464.733 749.001 459.067 758.03 461.003C767.459 463.021 754.571 464.286 766.3 462.845C768.6 462.562 771.136 460.744 775.294 459.773L786.017 465.386C790.1 466.61 788.459 464.81 792.135 467.01C797.358 470.146 786.894 478.001 813.758 478.001C812.893 488.362 812.217 480.743 809.705 490.156C821.293 497.917 814.869 499.9 810.875 509.519C805.834 521.64 808.011 535.731 804.911 550.428L804.287 564.461C803.399 570.168 801.87 568.167 801.288 571.686L802.329 578.275C802.452 578.923 803.129 584.065 803.135 584.077Z" fill="#A2A2A2"/>
<g id="Centre_26">
<circle id="Ellipse 95_26" cx="779.811" cy="535.206" r="31.7763" fill="white"/>
</g>
</g>
<g id="LA33">
<path id="LA33_2" d="M913.831 612.696C957.424 621.015 941.784 637.297 952.443 647.016L949.935 654.54C945.23 658.256 939.004 660.961 933.189 662.318C931.772 656.229 927.713 652.663 929.53 646.392C932.136 637.413 933.66 644.079 941.283 646.115C931.472 631.453 937.824 642.973 924.166 634.883C916.178 630.159 917.648 626.175 908.896 623.834C898.861 623.675 902.902 631.182 878.532 644.091C883.261 651.151 887.955 653.928 888.655 662.318C878.185 663.189 882.285 666.102 870.432 666.366C867.621 660.5 869.197 658.059 866.385 652.193C863.038 654.646 860.358 660.429 856.027 656.482C851.733 652.493 850.733 650.598 850.192 644.091L835.345 641.661C832.122 641.09 826.357 641.926 821.851 644.091C820.069 637.401 816.393 633.724 809.458 632.018L811.728 640.037C799.723 636.831 805.658 634.489 805.658 621.81L789.311 613.861C778.864 609.489 783.405 599.27 769.224 595.481C770.229 607.577 772.435 598.952 775.294 609.654C768.412 611.113 772.188 610.819 768.918 609.507C764.788 607.848 770.435 610.166 765.594 607.371C765.23 607.16 764.706 606.842 764.324 606.63C745.954 596.257 756.095 595.045 757.348 586.914C758.012 582.613 755.553 583.325 755.053 577.247C769.224 576.163 780.953 581.179 780.953 581.179C780.953 581.179 796.5 589.33 801.018 589.33C802.824 589.33 807.68 590.759 808.858 592.139C810.811 594.645 809.016 592.921 811.44 595.739C816.722 601.876 827.128 605.765 832.769 612.908C834.798 615.479 834.745 615.797 835.916 617.874C844.039 632.218 842.663 625.099 851.256 627.411C856.892 628.929 851.709 629.641 860.315 631.936L887.902 621.057C898.79 615.25 895.984 609.284 913.831 612.696Z" fill="#74BCFF"/>
<g id="Centre_27">
<circle id="Ellipse 95_27" cx="846.275" cy="646.813" r="31.7763" fill="white"/>
</g>
</g>
<g id="LA12">
<path id="LA12_2" fill-rule="evenodd" clip-rule="evenodd" d="M416.999 346.352C420.54 359.62 427.464 351.4 419.487 377.194C408.341 413.231 422.375 394.962 431.169 394.962C435.916 394.962 453.627 411.954 467.604 415.214C475.256 410.089 473.862 407.383 479.75 403.064L483.58 407.33C487.156 410.489 484.191 409.648 489.873 411.166C491.85 403.758 492.009 406.918 495.944 401.04L485.362 391.373C487.803 383.501 487.962 386.667 491.897 380.783C485.162 375.847 485.827 373.67 485.827 362.555C479.556 362.02 481.997 362.579 477.727 360.532C478.38 352.659 479.55 355.254 479.75 346.352C479.427 346.428 455.545 359.996 458.851 345.063C459.945 340.127 463.198 343.134 465.58 334.196H443.316C442.587 325.448 442.987 326.095 431.169 326.095C430.869 339.468 426.681 331.884 416.999 346.352V346.352Z" fill="#A2A2A2"/>
<g id="Centre_28">
<circle id="Ellipse 95_28" cx="451.776" cy="368.776" r="31.7763" fill="white"/>
</g>
</g>
<g id="LA13">
<path id="LA13_2" fill-rule="evenodd" clip-rule="evenodd" d="M651.816 419.266H639.669C642.382 430.38 638.113 430.307 632.036 433.829C639.248 438.659 653.355 447.623 651.816 457.751C641.581 462.664 628.187 459.775 620.387 462.758C616.811 464.129 613.276 469.141 611.723 472.495C604.676 487.698 617.723 476.49 607.282 496.229C611.876 499.307 614.846 502.866 619.723 506.155C631.446 514.045 626.552 508.385 637.645 508.385C657.91 508.385 643.61 516.963 662.556 500.901C686.085 480.956 665.062 490.728 678.85 478.72C680.756 477.061 682.897 476.149 685.779 473.501C688.961 470.583 690.114 469.118 692.297 465.852C682.909 465.07 685.609 464.234 682.179 457.751C687.856 451.761 689.379 453.161 692.932 450.278C700.879 443.83 697.355 428.78 698.861 419.754C699.743 414.5 701.826 412.223 702.42 405.086C697.061 403.663 700.755 405.251 696.349 403.062C683.932 412.164 703.502 419.266 651.816 419.266Z" fill="#A2A2A2"/>
<g id="Centre_29">
<circle id="Ellipse 95_29" cx="655.776" cy="470.776" r="31.7763" fill="white"/>
</g>
</g>
</g>
</g>
</svg>
